<svg width="578" height="263" viewBox="0 0 578 263" fill="none" xmlns="http://www.w3.org/2000/svg">
<path d="M253.904 87.2578V89.4752H258.078V92.3447H258.991V94.0404L262.904 94.1708V97.6926H259.252V98.0839H245.165V97.5621H239.426V91.9534L243.339 92.0839L243.991 90.6491H244.643V88.4317H251.426V87.2578H253.904Z" fill="#E9E9E7"/>
<path d="M254.687 16.9502V17.3415H256.121L256.252 21.2545H254.817L254.948 31.4284L240.078 31.8197L239.817 17.2111L254.687 16.9502Z" fill="#E9E9E7"/>
<path d="M292.512 49.2979L322.642 49.95L322.251 67.0369L297.99 66.5152V64.8195L292.251 64.6891L292.512 49.2979Z" fill="#E9E9E7"/>
<path d="M271.121 -3.91699L271.251 11.0829L260.425 11.2134V13.4308H256.382L256.251 -3.78656L271.121 -3.91699Z" fill="#E9E9E7"/>
<path d="M353.816 86.0771V96.5119L332.555 96.6423V98.0771H326.294L326.164 86.2076L353.816 86.0771Z" fill="#E9E9E7"/>
<path d="M165.209 -6.52759L185.948 -6.00585V-1.57109H183.992V1.55933L165.079 1.16803L165.209 -6.52759Z" fill="#E9E9E7"/>
<path d="M355.12 83.8662L359.555 83.9966V86.7358L357.077 86.6053V89.3444L354.99 89.214L355.12 83.8662Z" fill="#E9E9E7"/>
<path d="M251.426 34.6895L252.209 46.1677L242.035 46.8198L241.252 35.3416L251.426 34.6895Z" fill="#E9E9E7"/>
<path d="M257.817 35.6016L269.817 35.732V47.2102H257.817V35.6016Z" fill="#E9E9E7"/>
<path d="M254.556 51.2559L255.078 66.6471L241.513 67.0384L241.121 51.6472L254.556 51.2559Z" fill="#E9E9E7"/>
<path d="M270.469 71.7314L270.6 81.9053L257.687 82.0358L257.556 71.8619L270.469 71.7314Z" fill="#E9E9E7"/>
<path d="M270.73 53.8623L271.513 63.2536L257.948 64.4275L257.165 55.0362L270.73 53.8623Z" fill="#E9E9E7"/>
<path d="M240.208 69.9043L254.295 70.1652L254.034 86.0781L240.078 85.9477L240.208 69.9043Z" fill="#E9E9E7"/>
<path d="M273.208 17.2119L273.339 31.4292L258.078 31.5597L257.947 17.3423L273.208 17.2119Z" fill="#E9E9E7"/>
<path d="M339.599 -0.00390625L348.207 0.387396L347.816 10.9526L339.207 10.6917L339.599 -0.00390625Z" fill="#E9E9E7"/>
<path d="M298.382 87.7773L317.164 88.1686L317.034 98.0816H298.121L298.382 87.7773Z" fill="#E9E9E7"/>
<path d="M208.774 18.7773L222.991 19.2991L222.6 28.8208L208.383 28.1686L208.774 18.7773Z" fill="#E9E9E7"/>
<path d="M339.729 63.6455V81.2541H323.946L323.816 63.7759L339.729 63.6455Z" fill="#E9E9E7"/>
<path d="M237.991 15.7764L238.513 31.1676L224.817 31.6893L224.426 16.2981L237.991 15.7764Z" fill="#E9E9E7"/>
<path d="M224.817 33.2539L238.513 33.3843L238.382 49.1669L224.687 49.0364L224.817 33.2539Z" fill="#E9E9E7"/>
<path d="M240.078 -3.78784L240.209 8.73385L213.47 9.12515L213.339 -3.2661L240.078 -3.78784Z" fill="#E9E9E7"/>
<path d="M293.295 74.6035L313.643 74.9948L313.382 85.6904L293.034 85.2991L293.295 74.6035Z" fill="#E9E9E7"/>
<path d="M353.685 63.5139V74.7313L343.25 74.8617L343.12 63.6444L353.685 63.5139Z" fill="#E9E9E7"/>
<path d="M222.731 35.7334L222.991 46.8203L208.905 47.0812L208.774 35.9943L222.731 35.7334Z" fill="#E9E9E7"/>
<path d="M333.468 18.6445L333.99 35.3401L324.338 35.601L323.946 18.775L333.468 18.6445Z" fill="#E9E9E7"/>
<path d="M187.253 28.5596L187.122 39.7769H185.035L185.166 28.5596H187.253Z" fill="#E9E9E7"/>
<path d="M353.686 74.7327V81.1239L343.251 81.2544V74.8631L353.686 74.7327Z" fill="#E9E9E7"/>
<path d="M343.512 18.3818L343.903 35.0774L335.555 35.3383L335.164 18.5123L343.512 18.3818Z" fill="#E9E9E7"/>
<path d="M268.382 87.6465L273.86 87.7769L273.599 98.0812H268.121L268.382 87.6465Z" fill="#E9E9E7"/>
<path d="M216.078 86.4707L230.034 86.7316L229.904 94.2968L215.948 94.1663L216.078 86.4707Z" fill="#E9E9E7"/>
<path d="M290.034 20.8623L290.425 34.8188H286.512L286.252 20.9927L290.034 20.8623Z" fill="#E9E9E7"/>
<path d="M238.121 75.5146L238.513 88.2972L232.513 88.4276L232.252 75.6451L238.121 75.5146Z" fill="#E9E9E7"/>
<path d="M336.99 -0.00390625L337.381 10.17L329.425 10.5613L329.033 0.387396L336.99 -0.00390625Z" fill="#E9E9E7"/>
<path d="M185.557 28.0352V38.6003H183.339L183.209 28.0352H185.557Z" fill="#E9E9E7"/>
<path d="M326.685 1.03711L326.816 11.3414L318.859 11.4719L318.599 1.16754L326.685 1.03711Z" fill="#E9E9E7"/>
<path d="M207.47 79.0378L208.122 98.0812H202.122L201.47 79.2987L207.47 79.0378Z" fill="#E9E9E7"/>
<path d="M358.25 75.5146L358.381 79.819L355.772 79.9494L355.642 75.5146H358.25Z" fill="#E9E9E7"/>
<path d="M207.991 24.7744V31.6874L204.991 31.8179L204.861 24.9048L207.991 24.7744Z" fill="#E9E9E7"/>
<path d="M187.253 32.7314L190.774 32.8619V37.6879H187.122L187.253 32.7314Z" fill="#E9E9E7"/>
<path d="M181.905 33.2539V36.7756H178.905V33.2539H181.905Z" fill="#E9E9E7"/>
<path d="M206.035 -3.13574L206.296 2.60337L203.426 2.7338L203.165 -3.00531L206.035 -3.13574Z" fill="#E9E9E7"/>
<path d="M206.166 37.6855V40.2942H202.122V37.6855H206.166Z" fill="#E9E9E7"/>
<path d="M238.904 58.4307L239.165 64.0393L236.165 64.1698L235.904 58.5611L238.904 58.4307Z" fill="#E9E9E7"/>
<path d="M213.47 66.9043L213.6 70.426L207.861 70.5565L207.731 67.1652L213.47 66.9043Z" fill="#E9E9E7"/>
<path d="M291.73 92.8613L291.99 98.0787H287.817L287.556 92.9918L291.73 92.8613Z" fill="#E9E9E7"/>
<path d="M170.557 49.168L170.687 53.6027L167.818 53.7332L167.687 49.168H170.557Z" fill="#E9E9E7"/>
<path d="M211.904 73.0361L212.035 77.21L204.339 77.3405L204.209 73.1666L211.904 73.0361Z" fill="#E9E9E7"/>
<path d="M203.426 39.9075L207.47 40.2988L207.209 43.2988L203.035 42.9075L203.426 39.9075Z" fill="#E9E9E7"/>
<path d="M227.426 50.0801L227.687 53.4714L219.469 53.8627L219.208 50.4714L227.426 50.0801Z" fill="#E9E9E7"/>
<path d="M201.861 17.7312L205.904 17.9921L205.643 24.2529L201.6 23.992L201.861 17.7312Z" fill="#E9E9E7"/>
<path d="M134.818 81.9053L138.21 85.5574L134.166 89.2096L130.775 85.5574L134.818 81.9053Z" fill="#E9E9E7"/>
<path d="M208.513 38.0771L208.644 40.5554L205.383 40.6858L205.252 38.2076L208.513 38.0771Z" fill="#E9E9E7"/>
<path d="M358.772 66.6445V70.9489H354.729V66.6445H358.772Z" fill="#E9E9E7"/>
<path d="M571.509 52.9465V54.2509H577.64V59.0769H578.553V62.5987H577.64V68.0769H578.683V70.6856H577.901L577.77 75.7725L571.118 75.6421V77.4682H559.249V75.6421H553.379V70.9465H552.336V67.4247H553.64V61.9465H552.466V58.8161H554.031V54.1204H560.162L560.292 52.9465H571.509Z" fill="#E9E9E7"/>
<path d="M544.379 52.6865V54.3822H550.379V58.8169H551.422V62.9908H550.379V67.556H551.422V70.9473H550.379L550.248 75.643H543.988V77.2082H531.988V75.3821L525.988 75.2516V62.3387H524.814L524.944 56.4691H526.64V53.8604L532.77 53.9909V52.6865H544.379Z" fill="#E9E9E7"/>
<path d="M520.901 22.9492L521.032 26.3405L522.205 26.2101V31.5579H523.249V36.3839H521.684L521.814 52.8187H522.988L523.118 57.123H521.945L522.075 62.3404H521.032V65.4708L508.379 65.6012L508.119 23.0797L520.901 22.9492Z" fill="#E9E9E7"/>
<path d="M482.423 69.6443L482.553 71.4704L488.814 71.2095L489.206 84.6442L462.988 85.6877L462.467 71.8617L472.38 71.4704L472.249 70.0356L482.423 69.6443Z" fill="#E9E9E7"/>
<path d="M400.381 18.6445L428.685 19.0358L428.555 32.4706L400.25 32.0793L400.381 18.6445Z" fill="#E9E9E7"/>
<path d="M492.075 -9.13672L501.205 -8.74542L500.814 0.124113L491.684 -0.26719L492.075 -9.13672Z" fill="#E9E9E7"/>
<path d="M433.641 49.5576L434.032 61.9489L423.858 62.3402L423.337 49.9489L433.641 49.5576Z" fill="#E9E9E7"/>
<path d="M381.598 66.9043L420.859 67.2956L420.728 79.1651L381.598 78.7738V66.9043Z" fill="#E9E9E7"/>
<path d="M506.684 -11.2266L516.206 -10.7048L515.423 6.5125L505.771 5.99076L506.684 -11.2266Z" fill="#E9E9E7"/>
<path d="M431.815 64.165L431.684 77.8606L422.945 77.7302V64.165H431.815Z" fill="#E9E9E7"/>
<path d="M587.944 40.8164L588.074 49.1642L527.683 49.2946V41.2077L587.944 40.8164Z" fill="#E9E9E7"/>
<path d="M444.076 20.8623L457.249 21.384L456.336 49.9491L443.163 49.5578L444.076 20.8623Z" fill="#E9E9E7"/>
<path d="M376.381 18.1204L398.294 18.5117L398.033 31.9464L376.12 31.4247L376.381 18.1204Z" fill="#E9E9E7"/>
<path d="M443.685 50.6006L456.989 50.9919L456.076 79.557L442.772 79.1657L443.685 50.6006Z" fill="#E9E9E7"/>
<path d="M411.728 -9.78809L411.859 2.99447L375.989 3.38577L375.859 -9.39678L411.728 -9.78809Z" fill="#E9E9E7"/>
<path d="M526.118 79.9473L609.595 81.1212L609.335 91.5558L525.988 90.5123L526.118 79.9473Z" fill="#E9E9E7"/>
<path d="M522.205 69.5156L523.118 89.8634L510.205 90.3851L509.292 70.0374L522.205 69.5156Z" fill="#E9E9E7"/>
<path d="M375.598 49.5576L399.076 49.9489L398.816 63.2532L376.903 62.4706L375.598 49.5576Z" fill="#E9E9E7"/>
<path d="M422.294 50.2109V62.4718H400.381V50.2109H422.294Z" fill="#E9E9E7"/>
<path d="M355.12 83.8662L359.555 83.9966V86.7358L357.077 86.6053V89.3444L354.99 89.214L355.12 83.8662Z" fill="#E9E9E7"/>
<path d="M535.249 92.9934L535.379 98.0803H516.336L516.205 93.2543L535.249 92.9934Z" fill="#E9E9E7"/>
<path d="M489.206 90.252L489.336 98.078H464.162L464.032 90.6433L489.206 90.252Z" fill="#E9E9E7"/>
<path d="M572.161 24.9072V37.6898H563.944V24.9072H572.161Z" fill="#E9E9E7"/>
<path d="M554.683 24.5146L562.639 24.7755L562.248 37.4276L554.422 37.1668L554.683 24.5146Z" fill="#E9E9E7"/>
<path d="M486.727 -8.61719L491.162 -8.48675L490.901 0.51321L486.467 0.382776L486.727 -8.61719Z" fill="#E9E9E7"/>
<path d="M461.424 91.0352L461.554 98.0786H436.25L436.119 91.6873L461.424 91.0352Z" fill="#E9E9E7"/>
<path d="M535.64 24.5146L543.075 24.7755L542.683 38.2102L535.249 38.0798L535.64 24.5146Z" fill="#E9E9E7"/>
<path d="M525.857 24.5146L533.944 24.6451L533.683 38.0798L525.596 37.9494L525.857 24.5146Z" fill="#E9E9E7"/>
<path d="M581.031 24.9072L581.422 37.4289L573.726 37.6898L573.205 25.1681L581.031 24.9072Z" fill="#E9E9E7"/>
<path d="M552.727 24.5146V37.5581H545.031L544.901 24.5146H552.727Z" fill="#E9E9E7"/>
<path d="M441.598 75.9055L441.859 80.7316L438.076 80.862L437.815 76.036L441.598 75.9055Z" fill="#E9E9E7"/>
<path d="M482.814 3.64551V7.68897H480.206V3.64551H482.814Z" fill="#E9E9E7"/>
<path d="M373.12 87.2578L373.25 90.1274L368.424 90.3882L368.294 87.5187L373.12 87.2578Z" fill="#E9E9E7"/>
<path d="M439.641 20.4709L439.771 23.7318L432.728 23.9927L432.598 20.7318L439.641 20.4709Z" fill="#E9E9E7"/>
<path d="M526.901 -2.35474V2.7322H522.727V-2.35474H526.901Z" fill="#E9E9E7"/>
<path d="M439.119 28.1643L439.25 31.8165L436.25 31.9469L436.119 28.1643H439.119Z" fill="#E9E9E7"/>
<path d="M439.119 33.5137L439.25 37.4267L436.25 37.5571L436.119 33.6441L439.119 33.5137Z" fill="#E9E9E7"/>
<path d="M486.206 3.9043L486.336 6.90428L483.858 7.03472L483.727 3.9043H486.206Z" fill="#E9E9E7"/>
<path d="M467.814 4.55957V7.82043L462.206 7.95086L462.075 4.69L467.814 4.55957Z" fill="#E9E9E7"/>
<path d="M375.468 75.3857L375.598 82.6901L371.425 82.8205L371.294 75.5162L375.468 75.3857Z" fill="#E9E9E7"/>
<path d="M358.772 66.6445V70.9489H354.729V66.6445H358.772Z" fill="#E9E9E7"/>
<path d="M258.078 89.4697V92.3393H258.991V94.0349L262.904 94.1654V97.6871H259.252V102.122H245.165V97.5567H239.426V91.948L243.339 92.0784L243.991 90.6436H244.643V89.4697H258.078Z" fill="#E9E9E7"/>
<path d="M265.513 121.165V125.339L273.208 125.209V134.73L245.034 134.861V123.513H254.295V121.165H265.513Z" fill="#E9E9E7"/>
<path d="M326.164 157.296L351.859 157.687L351.729 162.774H355.251L355.12 167.209H352.251V172.426L325.903 172.035L326.164 157.296Z" fill="#E9E9E7"/>
<path d="M355.25 121.688L355.381 126.906L354.207 127.297L354.468 130.819L355.772 131.341L355.903 137.08L342.859 137.471L342.468 121.949L355.25 121.688Z" fill="#E9E9E7"/>
<path d="M342.599 215.209L351.598 215.601L352.903 218.47L355.381 219.383L355.251 224.34L353.294 225.383L352.251 228.253L342.077 227.731L342.599 215.209Z" fill="#E9E9E7"/>
<path d="M334.642 214.561L335.946 216.387L338.816 216.126L339.599 226.952L336.077 227.213L335.686 228.256L328.251 228.778L327.207 215.083L334.642 214.561Z" fill="#E9E9E7"/>
<path d="M324.86 212.73V227.991H311.034L309.73 224.078H296.164V212.73H324.86Z" fill="#E9E9E7"/>
<path d="M343.641 141.645L354.728 142.037L354.337 152.341H352.12L351.989 154.95L343.12 154.558L343.641 141.645Z" fill="#E9E9E7"/>
<path d="M358.25 174.643V185.077L359.424 184.816V187.947H342.859V174.643H358.25Z" fill="#E9E9E7"/>
<path d="M353.816 89.4697V96.5132L332.555 96.6436V101.991H326.294L326.164 89.4697H353.816Z" fill="#E9E9E7"/>
<path d="M164.427 213.12L191.427 215.468L190.775 223.685L188.296 223.555L187.253 225.642L163.514 223.555L164.427 213.12Z" fill="#E9E9E7"/>
<path d="M322.251 255.252V260.078L319.251 260.208V262.948L308.164 263.208L308.033 255.513L322.251 255.252Z" fill="#E9E9E7"/>
<path d="M88.6447 187.686L88.3838 199.946L76.5143 199.685L76.7752 187.686L83.5577 187.946V187.686H88.6447Z" fill="#E9E9E7"/>
<path d="M76.1232 106.822L84.3405 114.257L72.471 127.431L64.2537 119.866L76.1232 106.822Z" fill="#E9E9E7"/>
<path d="M224.817 177.903L224.948 189.121L210.861 189.251V178.034L224.817 177.903Z" fill="#E9E9E7"/>
<path d="M241.513 139.948L257.295 140.209L256.904 156.253L241.121 155.992L241.513 139.948Z" fill="#E9E9E7"/>
<path d="M323.164 232.556L323.425 251.078L311.555 251.208L311.294 232.687L323.164 232.556Z" fill="#E9E9E7"/>
<path d="M269.034 105.383L269.165 118.557L247.643 118.687L247.513 105.513L269.034 105.383Z" fill="#E9E9E7"/>
<path d="M255.86 193.425L272.165 193.686L271.904 208.555L255.599 208.164L255.86 193.425Z" fill="#E9E9E7"/>
<path d="M324.468 158.076L324.599 171.772L297.338 172.033L297.208 158.337L324.468 158.076Z" fill="#E9E9E7"/>
<path d="M225.47 232.815L225.6 246.772H213.731V232.946L225.47 232.815Z" fill="#E9E9E7"/>
<path d="M238.513 175.818V190.427H227.556V175.818H238.513Z" fill="#E9E9E7"/>
<path d="M324.077 138.902L324.208 150.902L296.556 151.163L296.425 139.163L324.077 138.902Z" fill="#E9E9E7"/>
<path d="M237.861 157.168L237.991 169.559L227.296 169.69L227.035 157.298L237.861 157.168Z" fill="#E9E9E7"/>
<path d="M268.512 231.644L268.773 244.557L245.947 244.948L245.686 232.035L268.512 231.644Z" fill="#E9E9E7"/>
<path d="M241.513 230.992L241.382 248.731L228.991 248.601L229.252 230.992H241.513Z" fill="#E9E9E7"/>
<path d="M246.469 254.21L276.469 255.906L275.686 270.384L245.556 268.558L246.469 254.21Z" fill="#E9E9E7"/>
<path d="M205.383 202.166L223.904 205.557L221.818 216.644L203.426 213.253L205.383 202.166Z" fill="#E9E9E7"/>
<path d="M211.904 253.689L240.469 254.342L240.208 264.255L211.643 263.602L211.904 253.689Z" fill="#E9E9E7"/>
<path d="M338.555 193.688L339.077 208.035L328.512 208.557L327.86 194.079L338.555 193.688Z" fill="#E9E9E7"/>
<path d="M188.818 246.772L188.948 259.816L169.383 260.077L169.253 247.033L188.818 246.772Z" fill="#E9E9E7"/>
<path d="M318.338 108.384L318.468 118.819L294.338 119.08L294.208 108.645L318.338 108.384Z" fill="#E9E9E7"/>
<path d="M273.991 178.162V188.727L260.817 188.858L260.686 178.162H273.991Z" fill="#E9E9E7"/>
<path d="M302.947 176.73L317.034 177.383L316.251 193.556L302.164 192.904L302.947 176.73Z" fill="#E9E9E7"/>
<path d="M272.426 160.165V170.469H260.426V160.165H272.426Z" fill="#E9E9E7"/>
<path d="M337.642 174.511L338.295 189.38L327.208 189.902L326.555 175.033L337.642 174.511Z" fill="#E9E9E7"/>
<path d="M324.729 194.995V208.039H301.512V194.995H324.729Z" fill="#E9E9E7"/>
<path d="M259.904 143.86L272.947 144.121L272.817 154.034L259.773 153.773L259.904 143.86Z" fill="#E9E9E7"/>
<path d="M243.078 212.73L256.252 213.122L255.86 229.948L242.687 229.687L243.078 212.73Z" fill="#E9E9E7"/>
<path d="M259.512 217.031L273.077 217.553L272.686 227.727L259.121 227.205L259.512 217.031Z" fill="#E9E9E7"/>
<path d="M308.816 232.686L308.947 246.903L293.164 247.033L292.903 232.816L308.816 232.686Z" fill="#E9E9E7"/>
<path d="M358.25 193.688V206.34H342.207V193.688H358.25Z" fill="#E9E9E7"/>
<path d="M242.426 193.554L252.861 193.945L252.339 208.945L241.904 208.554L242.426 193.554Z" fill="#E9E9E7"/>
<path d="M210.339 157.296L225.861 158.209L225.078 171.383L209.557 170.47L210.339 157.296Z" fill="#E9E9E7"/>
<path d="M167.036 229.162L186.992 229.684L186.601 241.032L166.644 240.379L167.036 229.162Z" fill="#E9E9E7"/>
<path d="M317.164 89.4697L316.903 101.731L297.99 101.209L298.382 89.4697H317.164Z" fill="#E9E9E7"/>
<path d="M303.599 255.121V261.773H291.208V255.121H303.599Z" fill="#E9E9E7"/>
<path d="M328.381 140.469L333.599 140.599L333.338 154.295L328.121 154.164L328.381 140.469Z" fill="#E9E9E7"/>
<path d="M257.556 167.471V173.862L242.947 174.775L242.165 167.601L257.556 167.471Z" fill="#E9E9E7"/>
<path d="M257.686 158.598L257.947 164.337L242.295 164.859L242.034 159.25L257.686 158.598Z" fill="#E9E9E7"/>
<path d="M159.34 233.726L166.905 233.986L166.383 245.204L158.949 244.812L159.34 233.726Z" fill="#E9E9E7"/>
<path d="M207.73 132.385L207.861 142.559L204.469 142.689L204.339 132.385H207.73Z" fill="#E9E9E7"/>
<path d="M207.861 89.4697L208.252 100.426L202.252 100.687L201.861 89.4697H207.861Z" fill="#E9E9E7"/>
<path d="M20.5587 126.386L22.5152 134.734L16.6457 136.168L14.8196 127.69L20.5587 126.386Z" fill="#E9E9E7"/>
<path d="M71.8188 178.949L72.7318 200.732L68.8188 200.993L67.9058 179.08L71.8188 178.949Z" fill="#E9E9E7"/>
<path d="M322.642 179.859L322.903 189.512L318.338 189.642L318.077 179.99L322.642 179.859Z" fill="#E9E9E7"/>
<path d="M148.905 104.862L155.688 105.775L153.992 117.775L147.209 116.862L148.905 104.862Z" fill="#E9E9E7"/>
<path d="M340.12 142.295L340.642 152.73L335.947 152.86L335.555 142.425L340.12 142.295Z" fill="#E9E9E7"/>
<path d="M273.86 89.4697L273.469 101.991L267.991 101.861L268.382 89.4697H273.86Z" fill="#E9E9E7"/>
<path d="M258.469 184.032V191.076H242.817V184.032H258.469Z" fill="#E9E9E7"/>
<path d="M242.947 174.77L258.73 175.553L258.469 182.075L242.687 181.422L242.947 174.77Z" fill="#E9E9E7"/>
<path d="M208.904 243.906L209.035 254.993H204.731L204.6 244.037L208.904 243.906Z" fill="#E9E9E7"/>
<path d="M291.73 92.8613L292.251 102.383L288.077 102.644L287.556 92.9918L291.73 92.8613Z" fill="#E9E9E7"/>
<path d="M122.036 160.554L126.079 160.815L125.166 172.294L121.123 172.033L122.036 160.554Z" fill="#E9E9E7"/>
<path d="M291.73 137.732V142.819L286.643 142.95L286.512 137.863L291.73 137.732Z" fill="#E9E9E7"/>
<path d="M208.122 178.428L208.252 183.645L204.469 183.776L204.339 178.428H208.122Z" fill="#E9E9E7"/>
<path d="M27.3411 218.99L29.6889 223.555L26.6889 224.99L24.4716 220.425L27.3411 218.99Z" fill="#E9E9E7"/>
<path d="M357.859 106.688V109.948L352.772 110.079L352.642 106.688H357.859Z" fill="#E9E9E7"/>
<path d="M230.034 89.4697L229.904 94.2958L215.948 94.1654L216.078 89.4697H230.034Z" fill="#E9E9E7"/>
<path d="M290.034 112.947L290.425 119.078L288.077 119.208L287.686 113.078L290.034 112.947Z" fill="#E9E9E7"/>
<path d="M185.948 195.644L190.383 196.296L189.861 199.426L185.557 198.774L185.948 195.644Z" fill="#E9E9E7"/>
<path d="M297.599 126.254L297.729 131.08L292.512 131.21L292.381 126.384L297.599 126.254Z" fill="#E9E9E7"/>
<path d="M157.644 135.772L157.774 140.468L155.035 140.598L154.905 135.903L157.644 135.772Z" fill="#E9E9E7"/>
<path d="M61.6451 166.688L61.9059 168.906L59.6885 169.036L59.5581 166.949L61.6451 166.688Z" fill="#E9E9E7"/>
<path d="M51.0801 261.121L53.9496 261.512L53.4279 265.295L50.5583 264.904L51.0801 261.121Z" fill="#E9E9E7"/>
<path d="M295.251 176.73V180.383L287.034 180.513V176.861L295.251 176.73Z" fill="#E9E9E7"/>
<path d="M114.601 195.384L119.949 195.645L119.688 202.036L114.21 201.775L114.601 195.384Z" fill="#E9E9E7"/>
<path d="M293.556 101.73V104.73L286.382 104.861V101.991L293.556 101.73Z" fill="#E9E9E7"/>
<path d="M276.73 244.037V249.254L272.947 249.385L272.817 244.037H276.73Z" fill="#E9E9E7"/>
<path d="M292.643 147.645L293.164 154.036L289.643 154.297L288.991 147.905L292.643 147.645Z" fill="#E9E9E7"/>
<path d="M292.251 165.647L292.643 173.082L289.251 173.213L288.991 165.908L292.251 165.647Z" fill="#E9E9E7"/>
<path d="M191.948 201.386L192.339 206.994L188.426 207.386L188.035 201.647L191.948 201.386Z" fill="#E9E9E7"/>
<path d="M292.382 126.647V129.516L289.251 129.647L289.121 126.777L292.382 126.647Z" fill="#E9E9E7"/>
<path d="M75.3408 243.906V246.254H70.906V243.906H75.3408Z" fill="#E9E9E7"/>
<path d="M191.948 208.427L192.079 213.253L188.426 213.383L188.296 208.557L191.948 208.427Z" fill="#E9E9E7"/>
<path d="M358.12 145.295L358.642 149.078L355.642 149.469L355.12 145.686L358.12 145.295Z" fill="#E9E9E7"/>
<path d="M358.642 95.3408V102.254H356.555L356.424 95.3408H358.642Z" fill="#E9E9E7"/>
<path d="M398.032 207.381L414.728 207.511V221.207H412.25V222.903H407.815V220.946H404.815L404.684 223.685H399.858V222.12H398.032V207.381Z" fill="#E9E9E7"/>
<path d="M516.466 170.861L545.683 173.079L545.292 176.992L546.205 178.035L546.074 180.253L544.379 180.122L543.988 185.731L516.596 183.644L516.857 179.6L514.118 179.34L514.379 174.383L516.205 174.513L516.466 170.861Z" fill="#E9E9E7"/>
<path d="M393.989 196.687L394.641 218.599L393.598 218.73L393.728 221.73H390.598L390.468 217.686L382.772 217.817L382.12 197.339L386.163 197.208L386.294 199.556L389.033 199.426V196.947L393.989 196.687Z" fill="#E9E9E7"/>
<path d="M432.858 164.208V170.73H434.032V177.773H426.467V175.686H424.772V177.382H419.685V164.338L432.858 164.208Z" fill="#E9E9E7"/>
<path d="M591.074 96.3818L591.987 117.382L593.292 118.164L593.683 126.903L577.118 127.556L576.726 120.251L579.987 120.121L578.944 96.9036L591.074 96.3818Z" fill="#E9E9E7"/>
<path d="M535.64 208.687L535.77 224.86L514.249 225.121L514.118 208.817L523.64 208.687V215.73H526.64V208.687H535.64Z" fill="#E9E9E7"/>
<path d="M393.468 107.083V108.909H398.555V131.083H393.468V133.17H383.163V107.213L393.468 107.083Z" fill="#E9E9E7"/>
<path d="M415.381 106.165L416.685 132.252L405.728 132.774L405.598 130.295L400.642 130.556L399.468 108.774L404.946 108.382L404.815 106.817L415.381 106.165Z" fill="#E9E9E7"/>
<path d="M488.032 107.993L488.162 113.732L489.858 113.602L490.119 123.123L464.945 123.645L464.684 114.384H466.51L466.25 108.515L488.032 107.993Z" fill="#E9E9E7"/>
<path d="M460.119 107.864L460.249 113.603L461.945 113.473L462.206 124.56L437.032 125.082L436.771 114.256L438.597 114.125L438.467 108.386L460.119 107.864Z" fill="#E9E9E7"/>
<path d="M563.683 200.209L563.944 221.992L561.205 222.122V223.557L553.77 223.687V218.731L550.118 218.861L549.857 200.339L563.683 200.209Z" fill="#E9E9E7"/>
<path d="M489.206 90.252L489.336 101.208H487.51L487.64 107.078L465.858 107.339V101.73H464.293L464.032 90.6433L489.206 90.252Z" fill="#E9E9E7"/>
<path d="M422.424 211.168L435.206 211.82L434.815 219.385L433.641 219.255L433.511 223.037L431.685 222.385L431.554 223.82L421.641 223.298L422.424 211.168Z" fill="#E9E9E7"/>
<path d="M461.424 91.0352L461.684 101.339H459.728L459.858 107.079L438.206 107.6L438.076 101.861H436.38L436.119 91.6873L461.424 91.0352Z" fill="#E9E9E7"/>
<path d="M420.989 192.253L428.945 192.383L428.554 207.905L423.467 207.775L423.206 209.079L418.772 208.949L419.163 193.557L420.989 193.688V192.253Z" fill="#E9E9E7"/>
<path d="M465.597 161.599L465.728 173.468L448.771 173.599L449.293 221.207L439.119 221.338L438.598 161.86L465.597 161.599Z" fill="#E9E9E7"/>
<path d="M436.772 191.992V193.557L438.076 193.427L438.337 208.949L436.119 209.079L435.337 207.905L429.989 208.036L429.598 192.123L436.772 191.992Z" fill="#E9E9E7"/>
<path d="M457.771 196.687L464.684 196.947L464.293 207.904L454.249 207.513L454.51 199.947L457.64 200.078L457.771 196.687Z" fill="#E9E9E7"/>
<path d="M358.251 174.643V185.077L359.425 184.816V187.947H354.338V174.643H358.251Z" fill="#E9E9E7"/>
<path d="M400.641 177.903V192.512H391.902V177.903H400.641Z" fill="#E9E9E7"/>
<path d="M391.772 162.516L400.511 162.646V177.124H391.772V162.516Z" fill="#E9E9E7"/>
<path d="M534.335 155.078L545.031 155.861L544.118 168.382L533.422 167.73L534.335 155.078Z" fill="#E9E9E7"/>
<path d="M516.727 136.299L543.336 137.212L542.814 150.777L516.205 149.994L516.727 136.299Z" fill="#E9E9E7"/>
<path d="M410.424 248.861L410.554 263.992L382.641 264.122V248.992L410.424 248.861Z" fill="#E9E9E7"/>
<path d="M549.596 250.818L568.64 251.34L568.249 266.601L549.205 266.079L549.596 250.818Z" fill="#E9E9E7"/>
<path d="M516.206 115.687L537.597 116.992L536.814 130.557L515.423 129.252L516.206 115.687Z" fill="#E9E9E7"/>
<path d="M416.163 178.557L416.293 192.383L405.728 192.513L405.598 178.687L416.163 178.557Z" fill="#E9E9E7"/>
<path d="M559.249 146.603L559.379 157.82L547.249 157.95L547.118 146.733L559.249 146.603Z" fill="#E9E9E7"/>
<path d="M440.945 251.99L441.076 266.86L430.38 266.99L430.25 252.121L440.945 251.99Z" fill="#E9E9E7"/>
<path d="M424.51 251.99L424.902 266.729L413.945 267.121L413.554 252.251L424.51 251.99Z" fill="#E9E9E7"/>
<path d="M404.685 195.384L413.424 195.514V204.514H404.685V195.384Z" fill="#E9E9E7"/>
<path d="M415.511 163.688L415.772 176.47L404.685 176.731L404.554 163.948L415.511 163.688Z" fill="#E9E9E7"/>
<path d="M496.64 251.47L508.249 251.731L507.857 269.991L496.249 269.731L496.64 251.47Z" fill="#E9E9E7"/>
<path d="M524.292 251.729L524.944 269.468L512.684 269.989L512.031 252.25L524.292 251.729Z" fill="#E9E9E7"/>
<path d="M388.642 181.297L389.164 193.297L378.468 193.688L377.946 181.819L388.642 181.297Z" fill="#E9E9E7"/>
<path d="M388.772 163.426L389.424 177.513L378.729 178.034L377.946 164.078L388.772 163.426Z" fill="#E9E9E7"/>
<path d="M535.249 92.9934L535.51 109.428L516.466 109.689L516.205 93.2543L535.249 92.9934Z" fill="#E9E9E7"/>
<path d="M435.989 180.383L436.25 191.34L427.902 191.6L427.511 180.644L435.989 180.383Z" fill="#E9E9E7"/>
<path d="M513.727 141.905L514.249 152.47L510.205 152.731L509.553 142.166L513.727 141.905Z" fill="#E9E9E7"/>
<path d="M426.598 180.904L426.859 191.73L418.511 191.861L418.25 181.035L426.598 180.904Z" fill="#E9E9E7"/>
<path d="M473.293 262.683L482.815 262.814V269.205L473.162 269.075L473.293 262.683Z" fill="#E9E9E7"/>
<path d="M523.119 190.166L523.249 194.731L513.727 194.992L513.597 190.427L523.119 190.166Z" fill="#E9E9E7"/>
<path d="M512.553 101.73L512.684 110.861L510.205 110.991L509.945 101.861L512.553 101.73Z" fill="#E9E9E7"/>
<path d="M378.077 198.905L378.338 220.948H373.381L372.99 199.035L378.077 198.905Z" fill="#E9E9E7"/>
<path d="M468.206 259.686L469.119 268.817L462.076 269.469L461.163 260.338L468.206 259.686Z" fill="#E9E9E7"/>
<path d="M543.335 209.731L543.857 223.818L536.422 223.949L536.031 209.992L543.335 209.731Z" fill="#E9E9E7"/>
<path d="M478.51 248.73L478.38 255.643L469.119 255.513L469.249 248.73H478.51Z" fill="#E9E9E7"/>
<path d="M491.553 248.861L492.075 258.513L485.032 258.905L484.51 249.253L491.553 248.861Z" fill="#E9E9E7"/>
<path d="M573.857 213.772L575.031 219.512L566.683 221.207L565.64 215.338L573.857 213.772Z" fill="#E9E9E7"/>
<path d="M535.77 194.207L540.857 194.859L540.466 198.511L535.249 197.989L535.77 194.207Z" fill="#E9E9E7"/>
<path d="M460.249 249.252L465.336 249.643L464.945 253.817L459.988 253.426L460.249 249.252Z" fill="#E9E9E7"/>
<path d="M431.945 102.904L432.076 106.817L428.293 106.948L428.163 103.035L431.945 102.904Z" fill="#E9E9E7"/>
<path d="M431.554 123.646V129.776H423.597V123.646H431.554Z" fill="#E9E9E7"/>
<path d="M435.467 125.209L440.423 125.861L440.032 128.992L435.076 128.339L435.467 125.209Z" fill="#E9E9E7"/>
<path d="M381.337 160.95L381.598 163.298L378.598 163.689L378.337 161.211L381.337 160.95Z" fill="#E9E9E7"/>
<path d="M556.248 94.2988L571.248 94.5597L571.118 101.212L556.118 100.951L556.248 94.2988Z" fill="#E9E9E7"/>
<path d="M547.248 227.731V230.992H545.031V227.731H547.248Z" fill="#E9E9E7"/>
<path d="M513.727 194.468L513.858 198.12L510.858 198.25L510.597 194.598L513.727 194.468Z" fill="#E9E9E7"/>
<path d="M512.553 133.558V136.166H508.119V133.558H512.553Z" fill="#E9E9E7"/>
<path d="M545.031 110.992L545.162 114.775L542.684 114.905L542.423 111.122L545.031 110.992Z" fill="#E9E9E7"/>
<path d="M556.509 195.124L561.857 195.385L561.596 199.689L556.379 199.429L556.509 195.124Z" fill="#E9E9E7"/>
<path d="M544.509 96.3818L544.77 104.73L540.857 104.86L540.596 96.5123L544.509 96.3818Z" fill="#E9E9E7"/>
<path d="M532.379 229.297L536.683 229.688L536.422 232.427L532.118 231.906L532.379 229.297Z" fill="#E9E9E7"/>
<path d="M511.249 118.035L511.379 122.47L507.858 122.6L507.727 118.165L511.249 118.035Z" fill="#E9E9E7"/>
<path d="M544.509 123.515L544.64 126.906L542.162 127.036L541.901 123.515H544.509Z" fill="#E9E9E7"/>
<path d="M377.555 221.34L377.685 226.557H373.381L373.25 221.47L377.555 221.34Z" fill="#E9E9E7"/>
<path d="M423.206 109.427L427.38 110.079L426.989 112.557L422.815 111.905L423.206 109.427Z" fill="#E9E9E7"/>
<path d="M409.902 224.992L410.032 232.036L403.119 232.166L402.989 225.123L409.902 224.992Z" fill="#E9E9E7"/>
<path d="M493.119 226.947V231.773H486.597L486.467 226.947H493.119Z" fill="#E9E9E7"/>
<path d="M358.12 145.295L358.642 149.078L355.642 149.469L355.12 145.686L358.12 145.295Z" fill="#E9E9E7"/>
<path d="M358.642 95.3408V102.254H356.555L356.424 95.3408H358.642Z" fill="#E9E9E7"/>
</svg>
