<svg width="1440" height="1589" viewBox="0 0 1440 1589" fill="none" xmlns="http://www.w3.org/2000/svg">
<path d="M1619.14 1241.04C1608.49 1290.28 1592.87 1351.26 1564.6 1374.2L1519.58 1437.52C1486.35 1476.27 1515.77 1442.06 1483.86 1485.27C1451.28 1529.4 1422.7 1583.17 1374.21 1588.6C1323.11 1594.32 1319.2 1537.24 1327.52 1472.16C1331.35 1442.14 1352.42 1265.78 1301.99 1281.77C1270.83 1291.64 1234.81 1347.88 1215.3 1382.68C1193.5 1421.57 1181.33 1468.08 1155.49 1503.38C1104.68 1572.78 1006.19 1537.18 943.926 1508.18C865.98 1471.88 724.957 1359.98 774.182 1213.56C805.639 1119.98 857.833 1029.18 804.964 918.623C796.021 899.92 717.995 1006.64 703.896 1017.15C666.929 1044.71 578.184 1066.68 544.198 1005.35C509.891 943.443 589.292 821.642 610.471 787.859C624.388 765.661 693.966 631.601 624.529 628.472C555.862 625.378 484.043 674.724 431.556 732.088C368.129 801.406 300.136 860.855 236.37 929.591C183.57 986.501 84.9441 1060.39 17.3109 989.805C-50.6934 918.836 -40.2711 755.505 -0.0791531 672.769C80.1046 507.713 206.556 376.807 311.781 248.46C422.403 113.539 585.649 -59.0533 745.05 19.8822C850.993 72.3447 858.957 250.744 821.415 372.458C811.675 404.038 745.961 597.085 813.554 593.797C926.824 588.287 1006.1 381.979 1124.13 494.731C1165.45 534.215 1152.24 610.267 1144.69 667.11C1130.67 772.665 1073.51 870.721 1038.84 961.632C1018.72 1014.36 997.815 1070.54 1004.21 1135.53C1007.72 1171.23 1015.49 1239.52 1047.3 1246.13C1077.11 1252.32 1101.94 1224.95 1124.69 1203.84C1158.89 1172.11 1194.96 1144.87 1229.61 1114.21C1287.09 1063.36 1602.62 743.177 1624.79 1009.64C1630.98 1084.11 1634.31 1170.94 1619.14 1241.04Z" fill="#F9C558" fill-opacity="0.1"/>
</svg>
