<svg width="450" height="237" viewBox="0 0 450 237" fill="none" xmlns="http://www.w3.org/2000/svg">
<rect width="450" height="237" rx="20" fill="#F5F5F5"/>
<rect x="84.2031" y="73.915" width="292.825" height="54.2431" rx="16.2131" transform="rotate(-6 84.2031 73.915)" fill="#0F4D44"/>
<rect x="92.5796" y="80.6981" width="38.1078" height="38.1078" rx="19.0539" transform="rotate(-6 92.5796 80.6981)" fill="#28430A"/>
<path d="M120.886 93.3262L112.407 103.797C112.333 103.888 112.242 103.964 112.139 104.021C112.035 104.077 111.922 104.112 111.805 104.124C111.688 104.137 111.57 104.126 111.457 104.092C111.345 104.059 111.24 104.003 111.148 103.929L106.568 100.22C106.476 100.146 106.4 100.054 106.344 99.9512C106.288 99.8479 106.253 99.7346 106.241 99.6178C106.229 99.5009 106.239 99.3828 106.273 99.2701C106.306 99.1575 106.361 99.0525 106.435 98.9612C106.509 98.8699 106.6 98.794 106.704 98.738C106.807 98.6819 106.92 98.6467 107.037 98.6344C107.154 98.6222 107.272 98.633 107.385 98.6664C107.497 98.6998 107.602 98.755 107.694 98.8289L111.58 101.976L119.497 92.2015C119.646 92.017 119.863 91.8995 120.099 91.8747C120.335 91.8499 120.571 91.9199 120.755 92.0692C120.94 92.2185 121.057 92.435 121.082 92.671C121.107 92.907 121.037 93.1432 120.887 93.3276L120.886 93.3262Z" fill="#70D200"/>
<path d="M147.527 90.5273L147.682 92.0003L142.271 92.569L142.116 91.096L147.527 90.5273ZM141.656 81.737L142.789 92.5145L140.931 92.7098L139.798 81.9323L141.656 81.737ZM153.287 89.7872L152.885 85.9677C152.855 85.6815 152.777 85.4402 152.652 85.2438C152.526 85.0474 152.352 84.9036 152.128 84.8124C151.908 84.7207 151.641 84.6915 151.325 84.7247C151.034 84.7553 150.787 84.8311 150.586 84.9521C150.384 85.0731 150.232 85.2237 150.132 85.4039C150.031 85.5841 149.992 85.7803 150.014 85.9925L148.237 86.1793C148.204 85.8634 148.249 85.5494 148.37 85.2373C148.492 84.9251 148.687 84.6378 148.953 84.3752C149.22 84.1127 149.549 83.8935 149.939 83.7178C150.33 83.542 150.777 83.4277 151.28 83.3748C151.883 83.3115 152.426 83.3566 152.911 83.5102C153.401 83.6633 153.801 83.9306 154.111 84.3121C154.425 84.6883 154.614 85.1823 154.678 85.7942L155.052 89.3546C155.091 89.7198 155.15 90.0454 155.23 90.3313C155.314 90.6119 155.417 90.853 155.538 91.0548L155.55 91.1733L153.722 91.3654C153.618 91.1818 153.525 90.9445 153.445 90.6536C153.369 90.3573 153.316 90.0685 153.287 89.7872ZM153.203 86.4956L153.333 87.597L152.053 87.7316C151.722 87.7663 151.434 87.829 151.189 87.9196C150.944 88.0053 150.744 88.1161 150.588 88.2522C150.433 88.3883 150.322 88.5446 150.256 88.7212C150.19 88.8978 150.168 89.0922 150.19 89.3044C150.212 89.5166 150.282 89.7063 150.399 89.8736C150.516 90.0359 150.674 90.1566 150.872 90.2356C151.074 90.3141 151.311 90.339 151.583 90.3105C151.948 90.2721 152.259 90.1647 152.514 89.9881C152.775 89.8061 152.972 89.5982 153.107 89.3645C153.242 89.1258 153.304 88.9073 153.293 88.7088L153.954 89.4402C153.916 89.6487 153.837 89.8765 153.719 90.1235C153.6 90.3704 153.436 90.6122 153.226 90.8488C153.021 91.0799 152.765 91.2789 152.458 91.4459C152.156 91.6123 151.798 91.7173 151.384 91.7609C150.86 91.8159 150.383 91.7612 149.952 91.597C149.52 91.4279 149.169 91.1779 148.9 90.8469C148.63 90.5111 148.472 90.1161 148.424 89.6621C148.379 89.2378 148.419 88.8544 148.542 88.5121C148.671 88.1644 148.878 87.8631 149.166 87.6084C149.458 87.3531 149.826 87.1449 150.268 86.9837C150.709 86.8175 151.221 86.7038 151.804 86.6426L153.203 86.4956ZM158.219 84.5239L158.881 90.8232L157.097 91.0107L156.255 83.0015L157.936 82.8249L158.219 84.5239ZM158.111 86.556L157.533 86.6093C157.478 86.0412 157.502 85.5123 157.605 85.0225C157.714 84.5322 157.888 84.1022 158.128 83.7327C158.374 83.3626 158.682 83.0658 159.053 82.8423C159.423 82.6138 159.847 82.4744 160.326 82.424C160.711 82.3836 161.064 82.4013 161.387 82.4772C161.713 82.5476 162 82.6896 162.247 82.9031C162.499 83.1162 162.704 83.4064 162.863 83.774C163.02 84.1365 163.128 84.5917 163.186 85.1395L163.73 90.3136L161.938 90.5019L161.394 85.3204C161.353 84.9354 161.265 84.6379 161.128 84.4278C160.995 84.2122 160.818 84.0687 160.596 83.9972C160.378 83.9203 160.114 83.8982 159.803 83.9309C159.497 83.963 159.23 84.056 159.002 84.2097C158.774 84.3634 158.587 84.5601 158.443 84.7998C158.303 85.039 158.204 85.3088 158.146 85.6093C158.088 85.9098 158.076 86.2254 158.111 86.556ZM170.262 87.9506L169.241 78.239L171.032 78.0507L172.227 89.4204L170.606 89.5908L170.262 87.9506ZM164.813 86.2407L164.797 86.0852C164.733 85.4783 164.747 84.9181 164.837 84.4046C164.928 83.8862 165.089 83.4326 165.323 83.0439C165.556 82.6502 165.857 82.3366 166.227 82.1032C166.596 81.8648 167.025 81.72 167.513 81.6686C167.997 81.6178 168.431 81.6669 168.816 81.8161C169.201 81.9652 169.54 82.2015 169.834 82.5249C170.127 82.8433 170.375 83.2363 170.579 83.7039C170.782 84.1665 170.947 84.688 171.072 85.2685L171.125 85.7645C171.121 86.3436 171.067 86.8781 170.964 87.3679C170.861 87.8578 170.699 88.2889 170.479 88.6613C170.258 89.0337 169.973 89.3331 169.623 89.5595C169.277 89.7854 168.86 89.924 168.372 89.9754C167.888 90.0262 167.441 89.971 167.029 89.8096C166.623 89.6477 166.265 89.3985 165.955 89.0618C165.646 88.7252 165.393 88.3176 165.198 87.8392C165.003 87.3558 164.874 86.823 164.813 86.2407ZM166.581 85.8978L166.597 86.0532C166.636 86.4184 166.703 86.7555 166.801 87.0646C166.903 87.3731 167.038 87.6408 167.207 87.8676C167.375 88.0894 167.58 88.2575 167.821 88.3718C168.067 88.4806 168.351 88.5182 168.671 88.4845C169.076 88.442 169.4 88.3181 169.643 88.113C169.885 87.9079 170.065 87.647 170.182 87.3304C170.302 87.0084 170.37 86.657 170.385 86.2762L170.244 84.9365C170.184 84.6484 170.094 84.3835 169.974 84.1417C169.858 83.8993 169.714 83.6924 169.542 83.521C169.368 83.3446 169.163 83.2165 168.925 83.1368C168.692 83.0515 168.422 83.025 168.116 83.0572C167.79 83.0914 167.521 83.1895 167.309 83.3516C167.096 83.5136 166.929 83.7233 166.806 83.9807C166.688 84.2375 166.612 84.5299 166.576 84.858C166.541 85.186 166.542 85.5326 166.581 85.8978ZM182.96 77.3958L184.811 77.2013L185.568 84.4036C185.654 85.2227 185.548 85.9274 185.251 86.5174C184.954 87.1074 184.514 87.5752 183.932 87.9208C183.354 88.261 182.69 88.4705 181.94 88.5493C181.165 88.6307 180.459 88.5652 179.823 88.3526C179.187 88.1351 178.664 87.7685 178.256 87.2526C177.852 86.7362 177.608 86.0684 177.522 85.2493L176.765 78.047L178.615 77.8525L179.372 85.0548C179.427 85.5729 179.56 85.9904 179.773 86.3073C179.986 86.6193 180.263 86.8371 180.605 86.9608C180.947 87.0845 181.341 87.123 181.785 87.0763C182.229 87.0296 182.603 86.9105 182.907 86.7188C183.216 86.5267 183.442 86.256 183.585 85.9067C183.728 85.5524 183.772 85.1162 183.717 84.5981L182.96 77.3958ZM192.052 85.144C192.033 84.9664 191.972 84.8107 191.868 84.6769C191.764 84.5382 191.579 84.4228 191.315 84.3309C191.056 84.2383 190.679 84.1682 190.185 84.1203C189.751 84.0711 189.35 84.0011 188.981 83.9101C188.617 83.8137 188.299 83.685 188.027 83.5239C187.756 83.3628 187.538 83.1613 187.372 82.9192C187.207 82.6771 187.107 82.3883 187.072 82.0527C187.038 81.727 187.077 81.4111 187.189 81.1049C187.302 80.7987 187.48 80.5205 187.723 80.2705C187.966 80.0204 188.271 79.8112 188.637 79.643C189.009 79.4742 189.431 79.365 189.905 79.3152C190.576 79.2446 191.163 79.2977 191.665 79.4744C192.172 79.6456 192.574 79.9102 192.871 80.2682C193.168 80.6212 193.341 81.037 193.392 81.5157L191.608 81.7032C191.585 81.491 191.51 81.2993 191.383 81.1281C191.259 80.9515 191.086 80.8176 190.861 80.7264C190.637 80.6302 190.364 80.599 190.043 80.6328C189.737 80.6649 189.488 80.741 189.297 80.8609C189.109 80.9754 188.974 81.1144 188.891 81.2777C188.814 81.4405 188.784 81.6133 188.804 81.7958C188.818 81.9291 188.855 82.0474 188.916 82.1508C188.981 82.2487 189.08 82.3356 189.213 82.4114C189.345 82.4824 189.521 82.5437 189.741 82.5954C189.966 82.6466 190.245 82.6896 190.578 82.7245C191.203 82.7885 191.746 82.8986 192.206 83.0547C192.671 83.2054 193.039 83.4263 193.309 83.7172C193.578 84.0032 193.738 84.3855 193.789 84.8642C193.826 85.2195 193.784 85.5532 193.662 85.8654C193.544 86.1721 193.354 86.4491 193.091 86.6963C192.827 86.9386 192.501 87.1399 192.114 87.3004C191.731 87.4603 191.293 87.5662 190.8 87.6181C190.075 87.6943 189.447 87.6306 188.916 87.4269C188.386 87.2182 187.968 86.9253 187.664 86.5482C187.364 86.1655 187.192 85.7546 187.145 85.3154L188.87 85.1342C188.925 85.4627 189.044 85.7171 189.227 85.8974C189.415 86.0722 189.637 86.1911 189.893 86.254C190.154 86.3114 190.417 86.3261 190.684 86.2981C191.005 86.2644 191.269 86.1942 191.477 86.0875C191.685 85.9758 191.838 85.84 191.936 85.6801C192.033 85.5152 192.072 85.3365 192.052 85.144ZM199.135 86.742C198.543 86.8043 197.997 86.7643 197.498 86.6222C197.004 86.4746 196.57 86.2432 196.198 85.9281C195.83 85.6125 195.533 85.2272 195.306 84.7721C195.078 84.317 194.936 83.8156 194.878 83.2679L194.847 82.9718C194.781 82.3451 194.813 81.768 194.942 81.2405C195.071 80.713 195.28 80.252 195.567 79.8576C195.855 79.4582 196.21 79.1389 196.634 78.8998C197.058 78.6606 197.529 78.5138 198.047 78.4594C198.62 78.3992 199.131 78.4428 199.58 78.5901C200.03 78.7375 200.414 78.9715 200.732 79.2923C201.054 79.6077 201.31 79.9974 201.498 80.4616C201.692 80.9252 201.819 81.4457 201.879 82.0231L201.96 82.7855L195.771 83.4359L195.637 82.1553L200.063 81.6901L200.048 81.5495C200.005 81.2297 199.909 80.9354 199.761 80.6666C199.618 80.3973 199.419 80.1887 199.164 80.0409C198.909 79.893 198.584 79.8399 198.189 79.8814C197.893 79.9125 197.636 80.0044 197.417 80.1571C197.203 80.3043 197.032 80.5044 196.904 80.7573C196.776 81.0103 196.688 81.3089 196.639 81.6533C196.595 81.9923 196.595 82.369 196.638 82.7835L196.669 83.0796C196.706 83.4299 196.787 83.7507 196.913 84.0419C197.043 84.3276 197.213 84.5716 197.424 84.774C197.635 84.9763 197.88 85.1277 198.16 85.228C198.439 85.3233 198.749 85.3531 199.09 85.3173C199.519 85.2722 199.893 85.1456 200.21 84.9377C200.527 84.7297 200.793 84.4548 201.006 84.113L202.042 84.9247C201.896 85.1945 201.697 85.4599 201.445 85.7209C201.192 85.977 200.874 86.1975 200.489 86.3827C200.109 86.5673 199.658 86.687 199.135 86.742ZM213.666 81.5177L215.516 81.3232C215.531 82.0351 215.4 82.685 215.123 83.273C214.845 83.856 214.419 84.3373 213.845 84.717C213.271 85.0966 212.55 85.332 211.681 85.4233C211.015 85.4933 210.403 85.4379 209.845 85.2571C209.287 85.0713 208.795 84.7788 208.369 84.3795C207.942 83.9753 207.595 83.4705 207.326 82.865C207.063 82.2591 206.891 81.5687 206.809 80.7939L206.715 79.8983C206.634 79.1235 206.661 78.4122 206.798 77.7642C206.939 77.1157 207.179 76.5491 207.517 76.0646C207.855 75.575 208.28 75.1836 208.793 74.8902C209.311 74.5962 209.908 74.4138 210.584 74.3427C211.443 74.2525 212.185 74.3341 212.81 74.5877C213.436 74.8413 213.94 75.2298 214.325 75.7532C214.714 76.2761 214.983 76.8938 215.133 77.6065L213.283 77.801C213.185 77.3424 213.034 76.9565 212.832 76.6435C212.634 76.33 212.366 76.1038 212.027 75.9647C211.688 75.8208 211.259 75.7761 210.741 75.8305C210.316 75.8751 209.954 75.993 209.655 76.1841C209.356 76.3752 209.116 76.6349 208.936 76.9631C208.756 77.2914 208.636 77.6858 208.574 78.1462C208.517 78.6013 208.519 79.115 208.579 79.6874L208.675 80.5979C208.732 81.1407 208.83 81.6293 208.971 82.0635C209.116 82.4924 209.304 82.8543 209.534 83.1494C209.77 83.4439 210.052 83.6613 210.381 83.8013C210.71 83.9413 211.092 83.9885 211.526 83.9429C212.054 83.8874 212.472 83.7586 212.78 83.5566C213.093 83.3541 213.317 83.0836 213.451 82.7452C213.589 82.4014 213.661 81.9922 213.666 81.5177ZM217.962 73.1182L219.157 84.4879L217.38 84.6747L216.185 73.305L217.962 73.1182ZM218.394 80.22L217.816 80.2733C217.763 79.72 217.786 79.2012 217.884 78.7169C217.988 78.232 218.157 77.8026 218.392 77.4286C218.632 77.0492 218.934 76.7455 219.3 76.5175C219.664 76.2846 220.081 76.1435 220.55 76.0943C220.945 76.0528 221.306 76.0697 221.633 76.1451C221.965 76.2199 222.26 76.3661 222.517 76.5835C222.774 76.796 222.982 77.0885 223.141 77.4609C223.304 77.8279 223.414 78.2853 223.472 78.8331L224.013 83.9776L222.221 84.1659L221.679 79.0066C221.639 78.6216 221.55 78.3216 221.412 78.1066C221.28 77.891 221.102 77.745 220.88 77.6686C220.657 77.5873 220.392 77.5627 220.086 77.5949C219.766 77.6286 219.489 77.7225 219.255 77.8768C219.027 78.0305 218.843 78.2269 218.704 78.4661C218.564 78.7053 218.468 78.9749 218.414 79.2748C218.366 79.5743 218.359 79.8893 218.394 80.22ZM230.165 81.7069L229.764 77.8874C229.734 77.6012 229.656 77.3599 229.531 77.1635C229.405 76.9671 229.23 76.8234 229.006 76.7322C228.787 76.6404 228.52 76.6112 228.204 76.6444C227.913 76.675 227.666 76.7508 227.464 76.8718C227.263 76.9928 227.111 77.1434 227.01 77.3236C226.91 77.5039 226.87 77.7001 226.893 77.9123L225.116 78.099C225.083 77.7832 225.127 77.4692 225.249 77.157C225.371 76.8448 225.565 76.5575 225.832 76.2949C226.099 76.0324 226.428 75.8133 226.818 75.6375C227.209 75.4617 227.656 75.3474 228.159 75.2945C228.761 75.2312 229.305 75.2763 229.79 75.4299C230.28 75.583 230.68 75.8503 230.989 76.2319C231.303 76.608 231.492 77.102 231.557 77.7139L231.931 81.2744C231.969 81.6395 232.029 81.9651 232.108 82.2511C232.193 82.5316 232.296 82.7727 232.417 82.9746L232.429 83.093L230.601 83.2852C230.497 83.1015 230.404 82.8643 230.324 82.5734C230.248 82.277 230.195 81.9882 230.165 81.7069ZM230.081 78.4153L230.212 79.5167L228.931 79.6513C228.601 79.686 228.313 79.7487 228.068 79.8393C227.823 79.925 227.622 80.0358 227.467 80.1719C227.312 80.308 227.201 80.4643 227.135 80.6409C227.068 80.8175 227.046 81.0119 227.069 81.2241C227.091 81.4363 227.161 81.626 227.278 81.7933C227.395 81.9557 227.552 82.0763 227.75 82.1553C227.953 82.2338 228.19 82.2588 228.462 82.2302C228.827 82.1918 229.137 82.0844 229.393 81.9078C229.653 81.7258 229.851 81.5179 229.986 81.2842C230.121 81.0455 230.183 80.827 230.172 80.6285L230.832 81.3599C230.794 81.5684 230.716 81.7962 230.597 82.0432C230.479 82.2902 230.314 82.5319 230.105 82.7685C229.9 82.9996 229.644 83.1987 229.337 83.3656C229.035 83.532 228.677 83.637 228.262 83.6806C227.739 83.7356 227.262 83.681 226.831 83.5168C226.399 83.3476 226.048 83.0976 225.779 82.7666C225.509 82.4308 225.35 82.0359 225.303 81.5819C225.258 81.1575 225.298 80.7741 225.421 80.4318C225.549 80.0841 225.757 79.7828 226.045 79.5281C226.337 79.2728 226.704 79.0646 227.147 78.9034C227.588 78.7372 228.1 78.6236 228.682 78.5624L230.081 78.4153ZM235.101 76.2563L235.782 82.7406L233.998 82.9281L233.156 74.9189L234.859 74.74L235.101 76.2563ZM237.385 74.4221L237.544 76.0817C237.434 76.0734 237.314 76.0711 237.185 76.0747C237.06 76.0778 236.936 76.0858 236.813 76.0988C236.507 76.1309 236.243 76.2036 236.02 76.3168C235.797 76.4251 235.615 76.5689 235.474 76.7484C235.338 76.9224 235.24 77.1273 235.18 77.3631C235.119 77.5989 235.097 77.8582 235.112 78.1411L234.708 78.2135C234.655 77.7101 234.655 77.2386 234.709 76.7989C234.762 76.3592 234.871 75.9661 235.034 75.6197C235.202 75.2727 235.427 74.9921 235.709 74.7779C235.995 74.5632 236.339 74.4348 236.738 74.3928C236.847 74.3814 236.964 74.3791 237.089 74.3858C237.22 74.3921 237.318 74.4042 237.385 74.4221ZM243.49 73.8328L245.111 73.6625L245.929 81.4495C246.005 82.17 245.916 82.798 245.663 83.3335C245.41 83.869 245.024 84.2963 244.503 84.6154C243.984 84.9395 243.364 85.1394 242.643 85.2151C242.337 85.2472 241.992 85.2386 241.608 85.1892C241.228 85.1393 240.853 85.034 240.482 84.8735C240.116 84.7173 239.801 84.4935 239.536 84.2021L240.261 83.0631C240.583 83.3735 240.926 83.5895 241.288 83.7111C241.65 83.8327 242.021 83.8735 242.401 83.8336C242.81 83.7905 243.15 83.6775 243.42 83.4944C243.696 83.3158 243.897 83.0726 244.024 82.7648C244.152 82.4571 244.193 82.0935 244.149 81.674L243.518 75.6635L243.49 73.8328ZM238.479 78.4981L238.463 78.3426C238.399 77.7356 238.415 77.1752 238.511 76.6612C238.606 76.1423 238.773 75.6882 239.011 75.2989C239.249 74.9047 239.556 74.5906 239.93 74.3567C240.304 74.1178 240.74 73.9721 241.239 73.9198C241.757 73.8653 242.208 73.9126 242.593 74.0618C242.983 74.2104 243.32 74.4469 243.603 74.7714C243.886 75.0909 244.123 75.4852 244.312 75.9542C244.505 76.4179 244.667 76.9397 244.798 77.5197L244.85 78.0156C244.846 78.5948 244.792 79.1293 244.689 79.6191C244.586 80.1089 244.427 80.5398 244.211 80.9116C243.996 81.2835 243.713 81.5827 243.363 81.8091C243.017 82.035 242.595 82.1741 242.097 82.2265C241.608 82.2779 241.156 82.2231 240.74 82.0623C240.329 81.901 239.964 81.6525 239.644 81.3169C239.329 80.9807 239.072 80.5737 238.872 80.0958C238.671 79.6129 238.541 79.0804 238.479 78.4981ZM240.247 78.1551L240.263 78.3106C240.302 78.6757 240.372 79.0126 240.474 79.3212C240.582 79.6292 240.722 79.8964 240.895 80.1226C241.073 80.3434 241.285 80.5107 241.532 80.6245C241.783 80.7328 242.069 80.7701 242.389 80.7364C242.809 80.6923 243.142 80.5675 243.39 80.3618C243.643 80.1556 243.825 79.8945 243.937 79.5784C244.052 79.2569 244.12 78.9055 244.14 78.5243L243.999 77.1845C243.939 76.8964 243.849 76.6315 243.729 76.3897C243.613 76.1474 243.469 75.9405 243.297 75.769C243.123 75.5927 242.915 75.4648 242.673 75.3856C242.429 75.3014 242.15 75.2759 241.834 75.3091C241.513 75.3428 241.242 75.4412 241.019 75.6043C240.797 75.7673 240.622 75.9778 240.494 76.2357C240.372 76.4931 240.29 76.786 240.25 77.1146C240.21 77.4431 240.209 77.7899 240.247 78.1551ZM251.35 81.254C250.757 81.3163 250.212 81.2763 249.713 81.1342C249.219 80.9866 248.785 80.7552 248.413 80.4401C248.045 80.1245 247.748 79.7392 247.52 79.2841C247.293 78.829 247.15 78.3276 247.093 77.7799L247.062 77.4838C246.996 76.8571 247.027 76.28 247.157 75.7525C247.286 75.225 247.494 74.7641 247.782 74.3696C248.069 73.9702 248.425 73.6509 248.849 73.4118C249.273 73.1726 249.744 73.0258 250.262 72.9714C250.834 72.9112 251.345 72.9548 251.795 73.1021C252.245 73.2495 252.628 73.4835 252.947 73.8043C253.269 74.1197 253.525 74.5094 253.713 74.9736C253.906 75.4372 254.033 75.9577 254.094 76.5351L254.174 77.2975L247.986 77.9479L247.852 76.6673L252.278 76.2021L252.263 76.0615C252.22 75.7417 252.124 75.4475 251.976 75.1786C251.833 74.9093 251.634 74.7007 251.379 74.5529C251.124 74.405 250.799 74.3519 250.404 74.3934C250.108 74.4245 249.851 74.5164 249.632 74.6691C249.418 74.8163 249.247 75.0164 249.119 75.2693C248.991 75.5223 248.903 75.8209 248.854 76.1653C248.81 76.5043 248.809 76.881 248.853 77.2955L248.884 77.5916C248.921 77.942 249.002 78.2627 249.127 78.5539C249.257 78.8396 249.428 79.0836 249.639 79.286C249.849 79.4883 250.095 79.6397 250.375 79.74C250.654 79.8353 250.964 79.8651 251.305 79.8293C251.734 79.7842 252.107 79.6576 252.425 79.4497C252.742 79.2417 253.008 78.9668 253.221 78.625L254.257 79.4367C254.111 79.7065 253.912 79.9719 253.66 80.2329C253.407 80.489 253.089 80.7095 252.704 80.8947C252.324 81.0793 251.873 81.1991 251.35 81.254Z" fill="white"/>
<path d="M146.749 108.132C146.729 107.943 146.682 107.78 146.607 107.642C146.536 107.499 146.422 107.377 146.265 107.273C146.112 107.17 145.904 107.078 145.641 106.997C145.382 106.915 145.056 106.839 144.663 106.768C144.251 106.692 143.876 106.598 143.539 106.488C143.202 106.374 142.908 106.234 142.659 106.07C142.41 105.905 142.211 105.707 142.063 105.476C141.915 105.244 141.825 104.971 141.792 104.657C141.759 104.342 141.793 104.045 141.895 103.765C141.996 103.484 142.157 103.234 142.377 103.012C142.6 102.787 142.874 102.601 143.199 102.454C143.525 102.308 143.894 102.213 144.309 102.169C144.916 102.105 145.443 102.168 145.889 102.357C146.339 102.542 146.694 102.809 146.956 103.16C147.217 103.506 147.369 103.891 147.414 104.313L146.348 104.425C146.316 104.121 146.223 103.86 146.069 103.64C145.914 103.417 145.699 103.252 145.422 103.147C145.145 103.037 144.804 103.004 144.401 103.046C144.02 103.086 143.711 103.177 143.475 103.318C143.239 103.459 143.071 103.633 142.969 103.842C142.871 104.051 142.836 104.281 142.862 104.533C142.88 104.703 142.932 104.855 143.017 104.988C143.105 105.117 143.231 105.233 143.396 105.336C143.563 105.438 143.771 105.526 144.018 105.601C144.27 105.676 144.566 105.742 144.909 105.799C145.382 105.881 145.793 105.983 146.143 106.108C146.493 106.232 146.785 106.382 147.021 106.56C147.26 106.733 147.445 106.94 147.575 107.181C147.708 107.417 147.791 107.693 147.824 108.008C147.859 108.337 147.824 108.642 147.718 108.922C147.613 109.203 147.447 109.451 147.218 109.665C146.99 109.88 146.708 110.058 146.371 110.198C146.037 110.334 145.657 110.424 145.232 110.469C144.858 110.509 144.484 110.495 144.111 110.43C143.741 110.364 143.397 110.243 143.079 110.067C142.765 109.89 142.503 109.66 142.293 109.375C142.087 109.086 141.963 108.74 141.92 108.336L142.986 108.224C143.016 108.502 143.094 108.735 143.223 108.924C143.351 109.108 143.514 109.256 143.713 109.366C143.915 109.476 144.138 109.55 144.381 109.588C144.628 109.621 144.881 109.625 145.14 109.598C145.514 109.558 145.825 109.473 146.073 109.342C146.321 109.212 146.502 109.043 146.615 108.836C146.732 108.63 146.776 108.395 146.749 108.132ZM152.78 108.16L152.294 103.541L153.327 103.433L153.958 109.44L152.976 109.543L152.78 108.16ZM152.841 106.874L153.267 106.818C153.309 107.218 153.306 107.592 153.256 107.942C153.21 108.287 153.108 108.594 152.949 108.861C152.79 109.129 152.568 109.348 152.283 109.52C151.997 109.689 151.64 109.796 151.211 109.841C150.918 109.872 150.646 109.857 150.392 109.798C150.143 109.738 149.922 109.628 149.729 109.469C149.537 109.31 149.377 109.092 149.251 108.818C149.129 108.542 149.046 108.205 149.004 107.805L148.597 103.93L149.624 103.822L150.032 107.708C150.061 107.978 150.114 108.199 150.192 108.371C150.273 108.538 150.371 108.668 150.485 108.761C150.603 108.849 150.729 108.907 150.863 108.934C151 108.961 151.14 108.967 151.28 108.952C151.717 108.906 152.054 108.787 152.292 108.593C152.53 108.396 152.689 108.149 152.77 107.853C152.854 107.552 152.878 107.226 152.841 106.874ZM157.851 108.29C158.095 108.264 158.315 108.19 158.512 108.069C158.709 107.947 158.865 107.792 158.98 107.604C159.094 107.413 159.149 107.203 159.144 106.975L160.121 106.872C160.14 107.23 160.054 107.574 159.864 107.904C159.678 108.231 159.417 108.507 159.082 108.733C158.746 108.955 158.365 109.089 157.939 109.134C157.488 109.181 157.085 109.143 156.732 109.019C156.382 108.895 156.081 108.706 155.83 108.452C155.583 108.197 155.385 107.896 155.236 107.549C155.09 107.197 154.996 106.82 154.954 106.416L154.929 106.183C154.887 105.78 154.901 105.393 154.97 105.023C155.043 104.648 155.174 104.311 155.363 104.01C155.556 103.709 155.811 103.462 156.127 103.268C156.447 103.073 156.833 102.952 157.285 102.905C157.755 102.855 158.176 102.908 158.547 103.064C158.919 103.216 159.222 103.446 159.456 103.754C159.694 104.058 159.844 104.417 159.906 104.829L158.929 104.932C158.885 104.686 158.791 104.47 158.648 104.283C158.508 104.095 158.328 103.953 158.109 103.856C157.892 103.756 157.647 103.72 157.373 103.749C157.059 103.782 156.801 103.872 156.599 104.021C156.401 104.165 156.25 104.349 156.147 104.573C156.046 104.794 155.982 105.034 155.953 105.295C155.928 105.553 155.929 105.812 155.956 106.075L155.981 106.308C156.009 106.571 156.062 106.828 156.14 107.077C156.219 107.327 156.33 107.55 156.474 107.744C156.622 107.938 156.808 108.087 157.032 108.191C157.259 108.29 157.532 108.323 157.851 108.29ZM163.802 107.664C164.046 107.639 164.267 107.565 164.464 107.443C164.66 107.321 164.816 107.167 164.931 106.979C165.046 106.787 165.1 106.577 165.095 106.35L166.072 106.247C166.091 106.604 166.006 106.948 165.816 107.279C165.629 107.605 165.368 107.881 165.033 108.107C164.697 108.33 164.316 108.463 163.891 108.508C163.439 108.556 163.037 108.517 162.683 108.394C162.333 108.27 162.033 108.08 161.782 107.826C161.534 107.571 161.336 107.27 161.187 106.923C161.042 106.572 160.948 106.194 160.905 105.791L160.881 105.558C160.838 105.154 160.852 104.767 160.922 104.397C160.994 104.023 161.126 103.685 161.315 103.385C161.508 103.084 161.762 102.836 162.079 102.642C162.399 102.448 162.784 102.327 163.236 102.279C163.706 102.23 164.127 102.283 164.499 102.438C164.87 102.59 165.173 102.82 165.408 103.129C165.645 103.433 165.795 103.791 165.857 104.204L164.88 104.307C164.836 104.061 164.742 103.844 164.599 103.657C164.459 103.47 164.28 103.328 164.06 103.231C163.844 103.13 163.599 103.094 163.325 103.123C163.01 103.156 162.752 103.247 162.551 103.395C162.353 103.54 162.202 103.724 162.098 103.948C161.998 104.168 161.933 104.409 161.904 104.67C161.879 104.927 161.88 105.187 161.908 105.45L161.932 105.683C161.96 105.946 162.013 106.202 162.092 106.452C162.17 106.702 162.282 106.924 162.426 107.119C162.573 107.313 162.759 107.461 162.983 107.565C163.211 107.665 163.484 107.698 163.802 107.664ZM169.931 107.873C169.513 107.917 169.126 107.887 168.771 107.782C168.419 107.673 168.107 107.502 167.835 107.268C167.568 107.035 167.35 106.747 167.183 106.405C167.016 106.063 166.911 105.682 166.867 105.26L166.842 105.027C166.791 104.538 166.817 104.096 166.921 103.699C167.025 103.299 167.187 102.953 167.407 102.66C167.627 102.368 167.887 102.136 168.187 101.966C168.488 101.796 168.806 101.694 169.143 101.658C169.572 101.613 169.95 101.648 170.277 101.764C170.607 101.879 170.886 102.059 171.114 102.304C171.341 102.546 171.522 102.841 171.656 103.19C171.789 103.536 171.878 103.919 171.923 104.341L171.971 104.802L167.485 105.273L167.397 104.435L170.856 104.071L170.848 103.994C170.805 103.729 170.722 103.476 170.6 103.234C170.481 102.992 170.311 102.8 170.09 102.659C169.869 102.517 169.583 102.465 169.232 102.502C168.998 102.527 168.789 102.599 168.603 102.72C168.417 102.837 168.264 102.999 168.144 103.206C168.023 103.413 167.939 103.66 167.89 103.945C167.842 104.231 167.837 104.555 167.875 104.918L167.899 105.151C167.929 105.436 167.996 105.7 168.1 105.944C168.208 106.183 168.347 106.389 168.519 106.562C168.694 106.735 168.897 106.863 169.126 106.947C169.36 107.031 169.617 107.059 169.898 107.029C170.261 106.991 170.56 106.885 170.796 106.71C171.033 106.536 171.232 106.315 171.395 106.047L172.068 106.475C171.959 106.685 171.814 106.889 171.633 107.088C171.452 107.287 171.221 107.457 170.94 107.599C170.663 107.74 170.327 107.832 169.931 107.873ZM176.786 105.43C176.77 105.282 176.722 105.148 176.643 105.029C176.566 104.906 176.422 104.804 176.212 104.721C176.004 104.634 175.698 104.573 175.294 104.537C174.954 104.501 174.643 104.45 174.363 104.382C174.086 104.314 173.847 104.221 173.643 104.104C173.444 103.987 173.285 103.841 173.165 103.666C173.046 103.491 172.973 103.28 172.947 103.032C172.922 102.795 172.95 102.566 173.032 102.344C173.117 102.122 173.247 101.919 173.423 101.736C173.602 101.553 173.823 101.4 174.087 101.279C174.352 101.158 174.652 101.079 174.989 101.044C175.47 100.993 175.89 101.035 176.248 101.17C176.606 101.304 176.891 101.504 177.103 101.77C177.314 102.033 177.437 102.336 177.473 102.68L176.446 102.788C176.429 102.621 176.362 102.466 176.246 102.321C176.133 102.172 175.976 102.055 175.777 101.971C175.581 101.887 175.348 101.859 175.077 101.888C174.792 101.918 174.566 101.986 174.398 102.094C174.233 102.197 174.116 102.32 174.049 102.462C173.985 102.603 173.961 102.748 173.977 102.896C173.988 103.007 174.017 103.105 174.064 103.19C174.113 103.271 174.192 103.343 174.3 103.406C174.407 103.466 174.555 103.518 174.743 103.562C174.931 103.606 175.169 103.644 175.456 103.678C175.96 103.737 176.38 103.828 176.714 103.95C177.049 104.072 177.306 104.237 177.485 104.447C177.664 104.656 177.771 104.922 177.804 105.244C177.832 105.507 177.802 105.753 177.714 105.983C177.629 106.213 177.492 106.418 177.301 106.599C177.114 106.776 176.883 106.924 176.607 107.042C176.335 107.157 176.023 107.233 175.671 107.27C175.142 107.326 174.684 107.278 174.298 107.128C173.912 106.978 173.608 106.763 173.388 106.483C173.168 106.203 173.04 105.896 173.005 105.563L174.038 105.455C174.082 105.734 174.187 105.95 174.353 106.101C174.518 106.248 174.712 106.345 174.934 106.393C175.155 106.437 175.372 106.448 175.583 106.426C175.864 106.396 176.095 106.335 176.276 106.241C176.461 106.147 176.596 106.03 176.682 105.889C176.769 105.749 176.803 105.596 176.786 105.43ZM182.659 104.812C182.644 104.664 182.596 104.531 182.516 104.412C182.44 104.289 182.296 104.186 182.085 104.104C181.878 104.017 181.572 103.955 181.168 103.919C180.827 103.884 180.517 103.833 180.237 103.765C179.96 103.696 179.72 103.604 179.517 103.487C179.318 103.369 179.158 103.223 179.039 103.049C178.919 102.874 178.847 102.663 178.821 102.415C178.796 102.178 178.824 101.949 178.905 101.727C178.991 101.505 179.121 101.302 179.296 101.119C179.475 100.935 179.697 100.783 179.961 100.662C180.225 100.54 180.526 100.462 180.862 100.427C181.344 100.376 181.763 100.418 182.122 100.552C182.48 100.687 182.765 100.887 182.976 101.153C183.187 101.415 183.311 101.718 183.347 102.063L182.32 102.171C182.302 102.004 182.235 101.848 182.119 101.703C182.006 101.554 181.85 101.438 181.65 101.354C181.454 101.27 181.221 101.242 180.951 101.27C180.666 101.3 180.439 101.369 180.271 101.477C180.106 101.58 179.99 101.703 179.922 101.844C179.859 101.986 179.835 102.131 179.85 102.279C179.862 102.39 179.891 102.488 179.937 102.573C179.987 102.653 180.066 102.726 180.173 102.789C180.281 102.849 180.428 102.901 180.616 102.945C180.804 102.988 181.042 103.027 181.33 103.06C181.834 103.12 182.253 103.21 182.588 103.332C182.923 103.454 183.179 103.62 183.359 103.829C183.538 104.039 183.644 104.305 183.678 104.627C183.706 104.889 183.675 105.136 183.587 105.366C183.503 105.595 183.366 105.801 183.175 105.982C182.988 106.159 182.756 106.306 182.481 106.425C182.208 106.54 181.896 106.616 181.545 106.653C181.016 106.708 180.558 106.661 180.172 106.511C179.785 106.36 179.482 106.145 179.262 105.865C179.042 105.585 178.914 105.279 178.879 104.946L179.912 104.837C179.956 105.117 180.061 105.332 180.226 105.483C180.392 105.631 180.585 105.728 180.807 105.776C181.029 105.82 181.245 105.831 181.456 105.809C181.737 105.779 181.969 105.717 182.15 105.624C182.334 105.529 182.47 105.412 182.556 105.272C182.642 105.132 182.677 104.979 182.659 104.812ZM186.735 105.995L185.708 106.103L185.01 99.463C184.965 99.03 185.004 98.6573 185.128 98.3448C185.256 98.0283 185.46 97.7786 185.74 97.5958C186.02 97.4092 186.363 97.2945 186.77 97.2517C186.889 97.2393 187.008 97.2342 187.128 97.2366C187.252 97.2386 187.372 97.2483 187.49 97.2659L187.523 98.11C187.443 98.0997 187.353 98.096 187.252 98.0991C187.155 98.1019 187.059 98.1083 186.962 98.1184C186.744 98.1413 186.56 98.2056 186.41 98.3111C186.264 98.4126 186.158 98.5509 186.095 98.726C186.031 98.9011 186.011 99.1108 186.037 99.3551L186.735 105.995ZM187.381 99.8537L187.463 100.642L184.21 100.984L184.127 100.196L187.381 99.8537ZM192.685 103.966L192.199 99.3473L193.232 99.2387L193.863 105.246L192.881 105.349L192.685 103.966ZM192.746 102.68L193.172 102.624C193.214 103.024 193.211 103.398 193.161 103.748C193.115 104.093 193.013 104.399 192.854 104.667C192.695 104.934 192.473 105.154 192.188 105.326C191.902 105.495 191.545 105.601 191.116 105.647C190.823 105.677 190.551 105.663 190.297 105.604C190.048 105.544 189.827 105.434 189.634 105.275C189.442 105.115 189.282 104.898 189.156 104.623C189.034 104.348 188.951 104.011 188.909 103.611L188.502 99.7359L189.529 99.6279L189.937 103.514C189.966 103.784 190.019 104.005 190.097 104.176C190.178 104.344 190.276 104.474 190.39 104.567C190.508 104.655 190.634 104.713 190.768 104.74C190.905 104.767 191.045 104.773 191.185 104.758C191.622 104.712 191.959 104.593 192.197 104.399C192.435 104.202 192.594 103.955 192.675 103.659C192.759 103.358 192.783 103.032 192.746 102.68ZM195.648 96.4365L196.545 104.964L195.512 105.072L194.616 96.545L195.648 96.4365Z" fill="#E6E7E7"/>
<path d="M292.177 65.9166L293.31 76.6941L291.267 76.9088L285.899 69.9142L286.685 77.3904L284.65 77.6044L283.517 66.8268L285.552 66.6129L290.936 73.6133L290.149 66.1297L292.177 65.9166ZM296.549 71.3394L294.948 71.1261L294.975 65.6225L300.904 64.9993L301.075 66.6204L296.767 67.0732L296.75 69.6195C296.893 69.5096 297.105 69.3925 297.387 69.2682C297.672 69.1384 298 69.054 298.37 69.0151C298.884 68.9612 299.351 68.9968 299.774 69.1221C300.195 69.2424 300.563 69.4432 300.877 69.7245C301.196 70.0053 301.451 70.3628 301.641 70.7968C301.836 71.2253 301.963 71.7209 302.022 72.2835C302.074 72.7769 302.048 73.2486 301.946 73.6984C301.848 74.1428 301.669 74.5483 301.408 74.915C301.146 75.2767 300.801 75.5774 300.373 75.8171C299.943 76.0518 299.425 76.2011 298.818 76.2649C298.359 76.3131 297.91 76.2929 297.472 76.2043C297.038 76.1102 296.64 75.95 296.277 75.7237C295.913 75.4925 295.61 75.1951 295.367 74.8315C295.129 74.4673 294.974 74.037 294.902 73.5407L296.834 73.3376C296.903 73.6646 297.022 73.9366 297.189 74.1535C297.357 74.3704 297.563 74.5283 297.808 74.6273C298.058 74.7258 298.338 74.7587 298.649 74.726C298.93 74.6964 299.166 74.6192 299.358 74.4943C299.554 74.364 299.708 74.1956 299.821 73.9891C299.934 73.7826 300.009 73.5453 300.046 73.277C300.082 73.0087 300.084 72.7191 300.052 72.4082C300.02 72.1072 299.954 71.8372 299.854 71.5982C299.754 71.3544 299.617 71.1492 299.445 70.9826C299.273 70.8161 299.066 70.6957 298.824 70.6214C298.586 70.5466 298.315 70.5252 298.009 70.5574C297.599 70.6004 297.29 70.6953 297.081 70.842C296.876 70.9882 296.699 71.154 296.549 71.3394ZM305.21 70.4292L303.608 70.2158L303.636 64.7122L309.565 64.0891L309.735 65.7101L305.427 66.1629L305.411 68.7092C305.554 68.5994 305.766 68.4823 306.047 68.3579C306.333 68.2281 306.661 68.1437 307.031 68.1048C307.544 68.0509 308.012 68.0866 308.434 68.2118C308.856 68.3321 309.224 68.5329 309.538 68.8143C309.857 69.0951 310.111 69.4525 310.302 69.8865C310.496 70.3151 310.623 70.8107 310.682 71.3732C310.734 71.8667 310.709 72.3383 310.607 72.7882C310.509 73.2325 310.329 73.6381 310.068 74.0047C309.807 74.3665 309.462 74.6672 309.033 74.9068C308.604 75.1416 308.086 75.2908 307.479 75.3546C307.02 75.4029 306.571 75.3827 306.133 75.294C305.699 75.1999 305.3 75.0398 304.937 74.8135C304.573 74.5823 304.27 74.2848 304.027 73.9212C303.79 73.557 303.635 73.1268 303.563 72.6304L305.495 72.4274C305.564 72.7544 305.682 73.0263 305.85 73.2432C306.017 73.4601 306.223 73.6181 306.468 73.717C306.718 73.8155 306.998 73.8484 307.309 73.8157C307.591 73.7862 307.827 73.709 308.018 73.5841C308.214 73.4537 308.369 73.2853 308.482 73.0788C308.595 72.8724 308.67 72.635 308.706 72.3667C308.743 72.0984 308.745 71.8089 308.712 71.498C308.681 71.1969 308.615 70.927 308.515 70.688C308.414 70.4441 308.278 70.2389 308.106 70.0724C307.934 69.9059 307.726 69.7855 307.484 69.7112C307.247 69.6363 306.975 69.615 306.669 69.6471C306.26 69.6902 305.95 69.7851 305.741 69.9318C305.537 70.078 305.36 70.2438 305.21 70.4292ZM314.214 72.7159L314.341 74.072C314.397 74.6 314.322 75.1492 314.118 75.7195C313.913 76.2898 313.622 76.7744 313.245 77.1733L312.149 76.7123C312.259 76.4762 312.359 76.2387 312.448 75.9998C312.543 75.7603 312.611 75.5037 312.652 75.23C312.698 74.9607 312.705 74.6632 312.67 74.3375L312.519 72.894L314.214 72.7159ZM322.492 67.2432L322.683 69.0567C322.77 69.8857 322.76 70.6027 322.654 71.2076C322.548 71.8125 322.357 72.319 322.08 72.7272C321.804 73.1305 321.455 73.4441 321.034 73.6679C320.613 73.8868 320.134 74.0245 319.596 74.081C319.167 74.1262 318.761 74.1139 318.38 74.0442C317.998 73.9696 317.646 73.8319 317.326 73.6311C317.01 73.4248 316.727 73.1503 316.476 72.8074C316.23 72.464 316.024 72.0441 315.857 71.5478C315.695 71.0509 315.579 70.4718 315.51 69.8106L315.319 67.9971C315.232 67.168 315.242 66.4535 315.348 65.8536C315.46 65.2531 315.654 64.7513 315.931 64.348C316.208 63.9447 316.557 63.636 316.979 63.4221C317.4 63.2032 317.879 63.0655 318.417 63.009C318.851 62.9633 319.257 62.9756 319.633 63.0458C320.015 63.1154 320.364 63.2509 320.679 63.4523C320.999 63.6482 321.282 63.9178 321.527 64.2612C321.773 64.5996 321.976 65.0173 322.138 65.5142C322.304 66.0056 322.422 66.5819 322.492 67.2432ZM320.756 69.5286L320.509 67.1747C320.465 66.7602 320.403 66.4025 320.321 66.1018C320.244 65.7955 320.15 65.5385 320.038 65.3307C319.927 65.1229 319.797 64.9594 319.65 64.8402C319.502 64.716 319.339 64.6309 319.159 64.5849C318.98 64.5389 318.786 64.5268 318.579 64.5486C318.322 64.5756 318.098 64.6515 317.907 64.7764C317.715 64.8964 317.561 65.0722 317.446 65.3038C317.331 65.5355 317.255 65.8353 317.219 66.2033C317.187 66.5659 317.198 67.0038 317.252 67.517L317.499 69.8709C317.543 70.2854 317.603 70.6458 317.68 70.952C317.762 71.2577 317.86 71.5169 317.972 71.7297C318.089 71.9419 318.219 72.1128 318.362 72.2424C318.51 72.3666 318.674 72.4541 318.854 72.5051C319.033 72.5511 319.227 72.5632 319.434 72.5414C319.696 72.5139 319.92 72.438 320.106 72.3136C320.298 72.1887 320.451 72.0079 320.566 71.7714C320.68 71.5298 320.753 71.2253 320.784 70.8578C320.819 70.4849 320.81 70.0418 320.756 69.5286ZM331.152 66.3329L331.343 68.1465C331.43 68.9755 331.421 69.6924 331.315 70.2973C331.209 70.9022 331.017 71.4087 330.741 71.817C330.464 72.2203 330.115 72.5338 329.695 72.7577C329.274 72.9765 328.794 73.1142 328.256 73.1708C327.827 73.2159 327.422 73.2036 327.04 73.134C326.658 73.0594 326.307 72.9217 325.986 72.7208C325.67 72.5146 325.387 72.24 325.136 71.8971C324.891 71.5537 324.685 71.1339 324.518 70.6375C324.356 70.1407 324.24 69.5616 324.17 68.9003L323.98 67.0868C323.893 66.2578 323.902 65.5433 324.009 64.9433C324.12 64.3429 324.315 63.841 324.592 63.4377C324.869 63.0344 325.218 62.7258 325.639 62.5118C326.06 62.293 326.54 62.1552 327.078 62.0987C327.512 62.0531 327.917 62.0653 328.294 62.1355C328.675 62.2052 329.024 62.3407 329.34 62.542C329.659 62.7379 329.942 63.0075 330.188 63.3509C330.433 63.6894 330.637 64.107 330.799 64.6039C330.965 65.0953 331.083 65.6717 331.152 66.3329ZM329.417 68.6183L329.169 66.2644C329.126 65.8499 329.063 65.4923 328.982 65.1915C328.905 64.8853 328.81 64.6283 328.699 64.4205C328.587 64.2127 328.458 64.0492 328.31 63.9299C328.163 63.8058 327.999 63.7207 327.82 63.6747C327.64 63.6287 327.447 63.6166 327.24 63.6384C326.983 63.6653 326.759 63.7413 326.567 63.8662C326.376 63.9861 326.222 64.1619 326.107 64.3936C325.991 64.6252 325.915 64.9251 325.879 65.2931C325.848 65.6556 325.859 66.0935 325.913 66.6068L326.16 68.9606C326.204 69.3752 326.264 69.7355 326.341 70.0418C326.423 70.3475 326.52 70.6067 326.632 70.8194C326.749 71.0316 326.88 71.2025 327.023 71.3322C327.171 71.4563 327.335 71.5439 327.515 71.5948C327.694 71.6408 327.887 71.6529 328.095 71.6311C328.356 71.6036 328.58 71.5277 328.767 71.4033C328.958 71.2784 329.111 71.0977 329.226 70.8611C329.34 70.6196 329.413 70.3151 329.444 69.9476C329.48 69.5746 329.471 69.1315 329.417 68.6183ZM339.813 65.4227L340.004 67.2362C340.091 68.0652 340.081 68.7822 339.975 69.3871C339.869 69.9919 339.678 70.4985 339.401 70.9067C339.125 71.31 338.776 71.6236 338.355 71.8474C337.934 72.0663 337.455 72.204 336.917 72.2605C336.488 72.3056 336.082 72.2934 335.701 72.2237C335.319 72.1491 334.967 72.0114 334.647 71.8106C334.331 71.6043 334.048 71.3297 333.797 70.9869C333.551 70.6435 333.345 70.2236 333.178 69.7273C333.016 69.2304 332.9 68.6513 332.831 67.9901L332.64 66.1765C332.553 65.3475 332.563 64.633 332.669 64.0331C332.781 63.4326 332.975 62.9307 333.252 62.5274C333.529 62.1241 333.878 61.8155 334.3 61.6016C334.721 61.3827 335.2 61.245 335.738 61.1885C336.172 61.1428 336.578 61.1551 336.954 61.2253C337.336 61.2949 337.685 61.4304 338 61.6318C338.32 61.8276 338.603 62.0973 338.848 62.4407C339.094 62.7791 339.297 63.1968 339.459 63.6937C339.626 64.1851 339.743 64.7614 339.813 65.4227ZM338.077 67.7081L337.83 65.3542C337.786 64.9397 337.724 64.582 337.642 64.2812C337.565 63.975 337.471 63.718 337.359 63.5102C337.248 63.3024 337.118 63.1389 336.971 63.0197C336.823 62.8955 336.66 62.8104 336.48 62.7644C336.301 62.7184 336.107 62.7063 335.9 62.7281C335.643 62.7551 335.419 62.831 335.228 62.9559C335.036 63.0759 334.882 63.2517 334.767 63.4833C334.652 63.715 334.576 64.0148 334.54 64.3828C334.508 64.7454 334.519 65.1833 334.573 65.6965L334.82 68.0504C334.864 68.4649 334.924 68.8253 335.001 69.1315C335.083 69.4372 335.181 69.6964 335.293 69.9091C335.41 70.1214 335.54 70.2923 335.683 70.4219C335.831 70.5461 335.995 70.6336 336.175 70.6845C336.354 70.7305 336.548 70.7427 336.755 70.7209C337.017 70.6934 337.241 70.6174 337.427 70.4931C337.619 70.3682 337.772 70.1874 337.887 69.9508C338.001 69.7093 338.074 69.4048 338.105 69.0373C338.141 68.6644 338.131 68.2213 338.077 67.7081ZM342.086 70.6021C342.055 70.306 342.13 70.0462 342.311 69.8226C342.492 69.599 342.755 69.4691 343.101 69.4327C343.446 69.3964 343.731 69.4688 343.954 69.6499C344.178 69.8309 344.305 70.0695 344.336 70.3656C344.367 70.6567 344.292 70.9141 344.111 71.1377C343.929 71.3564 343.666 71.4838 343.32 71.5202C342.975 71.5565 342.69 71.4866 342.467 71.3104C342.244 71.1294 342.117 70.8933 342.086 70.6021ZM356.557 63.6628L356.747 65.4764C356.834 66.3054 356.825 67.0224 356.719 67.6272C356.613 68.2321 356.422 68.7387 356.145 69.1469C355.868 69.5502 355.52 69.8638 355.099 70.0876C354.678 70.3064 354.198 70.4442 353.661 70.5007C353.231 70.5458 352.826 70.5335 352.444 70.4639C352.062 70.3893 351.711 70.2516 351.391 70.0508C351.075 69.8445 350.791 69.5699 350.541 69.227C350.295 68.8837 350.089 68.4638 349.922 67.9674C349.76 67.4706 349.644 66.8915 349.575 66.2302L349.384 64.4167C349.297 63.5877 349.307 62.8732 349.413 62.2733C349.525 61.6728 349.719 61.1709 349.996 60.7676C350.273 60.3643 350.622 60.0557 351.043 59.8417C351.465 59.6229 351.944 59.4852 352.482 59.4286C352.916 59.383 353.322 59.3953 353.698 59.4654C354.08 59.5351 354.428 59.6706 354.744 59.8719C355.064 60.0678 355.346 60.3374 355.592 60.6808C355.837 61.0193 356.041 61.437 356.203 61.9338C356.369 62.4252 356.487 63.0016 356.557 63.6628ZM354.821 65.9482L354.574 63.5943C354.53 63.1798 354.468 62.8222 354.386 62.5214C354.309 62.2152 354.215 61.9582 354.103 61.7504C353.991 61.5426 353.862 61.3791 353.715 61.2598C353.567 61.1357 353.403 61.0506 353.224 61.0046C353.044 60.9586 352.851 60.9465 352.644 60.9683C352.387 60.9952 352.163 61.0712 351.972 61.1961C351.78 61.316 351.626 61.4918 351.511 61.7235C351.395 61.9551 351.32 62.255 351.283 62.623C351.252 62.9856 351.263 63.4235 351.317 63.9367L351.564 66.2906C351.608 66.7051 351.668 67.0654 351.745 67.3717C351.827 67.6774 351.924 67.9366 352.036 68.1493C352.154 68.3615 352.284 68.5324 352.427 68.6621C352.575 68.7862 352.739 68.8738 352.919 68.9247C353.098 68.9707 353.292 68.9828 353.499 68.961C353.76 68.9336 353.984 68.8576 354.171 68.7332C354.362 68.6083 354.515 68.4276 354.63 68.191C354.745 67.9495 354.817 67.645 354.849 67.2775C354.884 66.9045 354.875 66.4614 354.821 65.9482ZM365.217 62.7526L365.408 64.5661C365.495 65.3951 365.485 66.1121 365.379 66.717C365.273 67.3218 365.082 67.8284 364.806 68.2366C364.529 68.6399 364.18 68.9535 363.759 69.1773C363.338 69.3962 362.859 69.5339 362.321 69.5904C361.892 69.6356 361.486 69.6233 361.105 69.5536C360.723 69.479 360.372 69.3413 360.051 69.1405C359.735 68.9342 359.452 68.6597 359.201 68.3168C358.956 67.9734 358.749 67.5535 358.582 67.0572C358.42 66.5603 358.305 65.9812 358.235 65.32L358.044 63.5065C357.957 62.6774 357.967 61.9629 358.074 61.363C358.185 60.7625 358.379 60.2607 358.656 59.8574C358.933 59.4541 359.282 59.1454 359.704 58.9315C360.125 58.7126 360.605 58.5749 361.142 58.5184C361.577 58.4727 361.982 58.485 362.359 58.5552C362.74 58.6248 363.089 58.7603 363.404 58.9617C363.724 59.1576 364.007 59.4272 364.253 59.7706C364.498 60.109 364.701 60.5267 364.863 61.0236C365.03 61.515 365.148 62.0913 365.217 62.7526ZM363.482 65.038L363.234 62.6841C363.191 62.2696 363.128 61.9119 363.047 61.6112C362.969 61.3049 362.875 61.0479 362.763 60.8401C362.652 60.6323 362.522 60.4688 362.375 60.3496C362.227 60.2254 362.064 60.1403 361.884 60.0943C361.705 60.0483 361.511 60.0362 361.304 60.058C361.048 60.085 360.824 60.1609 360.632 60.2858C360.44 60.4058 360.287 60.5816 360.171 60.8132C360.056 61.0449 359.98 61.3447 359.944 61.7127C359.912 62.0753 359.923 62.5132 359.977 63.0264L360.225 65.3803C360.268 65.7948 360.329 66.1552 360.406 66.4614C360.488 66.7671 360.585 67.0263 360.697 67.2391C360.814 67.4513 360.944 67.6222 361.088 67.7518C361.235 67.876 361.399 67.9635 361.579 68.0145C361.759 68.0605 361.952 68.0726 362.159 68.0508C362.421 68.0233 362.645 67.9474 362.831 67.823C363.023 67.6981 363.176 67.5173 363.291 67.2808C363.405 67.0392 363.478 66.7347 363.509 66.3672C363.545 65.9943 363.536 65.5512 363.482 65.038Z" fill="white"/>
<rect x="85.8887" y="102.397" width="292.512" height="54.1114" rx="16.2131" transform="rotate(5.13946 85.8887 102.397)" fill="#0F4D44"/>
<rect x="92.7369" y="110.599" width="38.1078" height="38.1078" rx="19.0539" transform="rotate(5.13946 92.7369 110.599)" fill="#28430A"/>
<path d="M118.07 128.458L107.728 137.093C107.638 137.169 107.534 137.226 107.421 137.261C107.309 137.296 107.191 137.309 107.074 137.298C106.957 137.288 106.843 137.254 106.739 137.2C106.635 137.145 106.543 137.07 106.468 136.98L102.69 132.455C102.614 132.365 102.558 132.261 102.523 132.149C102.487 132.037 102.475 131.919 102.485 131.802C102.496 131.685 102.529 131.571 102.584 131.467C102.638 131.363 102.713 131.27 102.803 131.195C102.893 131.12 102.997 131.063 103.109 131.028C103.222 130.993 103.34 130.98 103.457 130.991C103.574 131.001 103.687 131.035 103.792 131.089C103.896 131.144 103.988 131.218 104.063 131.309L107.268 135.147L116.924 127.086C117.106 126.934 117.342 126.861 117.578 126.882C117.814 126.903 118.032 127.017 118.185 127.2C118.337 127.382 118.41 127.617 118.389 127.853C118.368 128.089 118.253 128.308 118.071 128.46L118.07 128.458Z" fill="#70D200"/>
<path d="M140.678 120.189L139.716 130.889L137.871 130.723L138.834 120.023L140.678 120.189ZM144.622 125.263L144.491 126.726L139.655 126.291L139.787 124.828L144.622 125.263ZM145.653 120.637L145.521 122.107L140.076 121.617L140.208 120.147L145.653 120.637ZM149.093 120.946L148.13 131.646L146.286 131.48L147.248 120.78L149.093 120.946ZM151.386 121.152L155.17 121.493C155.984 121.566 156.666 121.751 157.217 122.047C157.768 122.344 158.174 122.746 158.435 123.253C158.701 123.756 158.802 124.358 158.739 125.059C158.691 125.593 158.551 126.054 158.318 126.443C158.086 126.832 157.778 127.15 157.395 127.397C157.013 127.639 156.567 127.814 156.059 127.922L155.476 128.143L152.073 127.837L152.19 126.374L154.74 126.603C155.181 126.643 155.556 126.597 155.864 126.467C156.172 126.337 156.412 126.143 156.583 125.887C156.759 125.626 156.863 125.324 156.894 124.982C156.927 124.609 156.883 124.279 156.761 123.992C156.644 123.7 156.442 123.467 156.157 123.293C155.872 123.114 155.499 123.004 155.038 122.962L153.098 122.788L152.268 132.018L150.423 131.852L151.386 121.152ZM156.53 132.402L154.449 127.369L156.383 127.536L158.508 132.483L158.5 132.579L156.53 132.402ZM165.781 130.456C165.8 130.235 165.784 130.036 165.731 129.858C165.682 129.681 165.581 129.514 165.427 129.357C165.274 129.2 165.051 129.042 164.759 128.882C164.472 128.718 164.103 128.544 163.65 128.36C163.155 128.157 162.7 127.941 162.286 127.711C161.878 127.477 161.525 127.218 161.23 126.935C160.935 126.646 160.714 126.328 160.568 125.979C160.422 125.625 160.368 125.227 160.408 124.786C160.447 124.35 160.574 123.962 160.787 123.62C161.005 123.279 161.295 122.994 161.657 122.765C162.024 122.531 162.446 122.364 162.924 122.264C163.403 122.159 163.924 122.132 164.487 122.183C165.281 122.254 165.951 122.462 166.498 122.808C167.05 123.154 167.458 123.588 167.722 124.111C167.991 124.634 168.098 125.194 168.045 125.792L166.215 125.627C166.247 125.274 166.199 124.957 166.071 124.673C165.949 124.386 165.743 124.15 165.453 123.966C165.168 123.782 164.796 123.67 164.335 123.628C163.899 123.589 163.531 123.623 163.23 123.729C162.929 123.835 162.697 123.995 162.535 124.207C162.372 124.42 162.278 124.668 162.253 124.952C162.235 125.153 162.265 125.341 162.343 125.516C162.421 125.686 162.55 125.851 162.728 126.01C162.907 126.164 163.135 126.316 163.413 126.464C163.691 126.613 164.021 126.761 164.403 126.909C164.98 127.139 165.479 127.381 165.901 127.636C166.323 127.887 166.669 128.16 166.938 128.456C167.208 128.752 167.401 129.078 167.517 129.434C167.634 129.785 167.673 130.176 167.634 130.607C167.593 131.058 167.466 131.457 167.252 131.803C167.039 132.144 166.752 132.427 166.391 132.651C166.035 132.871 165.616 133.029 165.133 133.124C164.656 133.214 164.131 133.233 163.557 133.182C163.043 133.136 162.542 133.021 162.055 132.839C161.572 132.658 161.14 132.409 160.759 132.093C160.377 131.772 160.086 131.39 159.884 130.947C159.682 130.5 159.607 129.992 159.658 129.423L161.502 129.589C161.471 129.937 161.503 130.239 161.599 130.494C161.699 130.75 161.85 130.966 162.052 131.142C162.253 131.314 162.493 131.449 162.771 131.548C163.053 131.647 163.359 131.712 163.687 131.741C164.118 131.78 164.484 131.751 164.784 131.655C165.089 131.559 165.325 131.407 165.491 131.2C165.658 130.993 165.755 130.745 165.781 130.456ZM175.696 123.339L174.734 134.039L172.889 133.873L173.851 123.173L175.696 123.339ZM179.169 128.133L178.606 134.387L176.835 134.228L177.551 126.276L179.219 126.426L179.169 128.133ZM178.675 130.089L178.102 130.03C178.158 129.467 178.282 128.957 178.477 128.501C178.676 128.044 178.928 127.66 179.232 127.346C179.542 127.033 179.899 126.804 180.302 126.657C180.706 126.506 181.145 126.452 181.62 126.494C182.003 126.529 182.343 126.614 182.642 126.749C182.946 126.88 183.198 127.073 183.398 127.328C183.602 127.584 183.746 127.905 183.829 128.293C183.913 128.676 183.931 129.139 183.882 129.683L183.42 134.82L181.642 134.66L182.104 129.516C182.139 129.134 182.109 128.827 182.017 128.597C181.929 128.362 181.784 128.188 181.582 128.076C181.385 127.96 181.132 127.888 180.823 127.86C180.52 127.832 180.242 127.872 179.991 127.978C179.739 128.083 179.52 128.239 179.334 128.444C179.152 128.65 179.004 128.894 178.89 129.175C178.776 129.456 178.704 129.761 178.675 130.089ZM188.59 134.011C188.879 134.037 189.144 134.004 189.384 133.912C189.63 133.816 189.833 133.671 189.994 133.478C190.159 133.285 190.261 133.055 190.3 132.787L191.968 132.937C191.912 133.45 191.718 133.905 191.386 134.3C191.055 134.694 190.635 134.995 190.127 135.201C189.62 135.403 189.073 135.477 188.485 135.424C187.877 135.369 187.358 135.219 186.925 134.972C186.494 134.721 186.145 134.399 185.879 134.004C185.613 133.61 185.426 133.166 185.317 132.672C185.213 132.179 185.186 131.658 185.236 131.109L185.259 130.852C185.308 130.303 185.428 129.795 185.618 129.328C185.813 128.857 186.077 128.451 186.409 128.11C186.741 127.77 187.142 127.517 187.611 127.352C188.08 127.181 188.617 127.124 189.219 127.178C189.856 127.235 190.403 127.413 190.86 127.711C191.318 128.004 191.664 128.388 191.898 128.863C192.137 129.334 192.235 129.867 192.191 130.46L190.523 130.31C190.535 130.015 190.485 129.744 190.374 129.497C190.268 129.245 190.104 129.038 189.882 128.875C189.664 128.712 189.394 128.616 189.07 128.587C188.713 128.555 188.41 128.601 188.161 128.727C187.913 128.848 187.712 129.028 187.557 129.266C187.403 129.499 187.282 129.767 187.196 130.07C187.115 130.369 187.059 130.683 187.03 131.011L187.007 131.268C186.977 131.596 186.975 131.917 187.002 132.231C187.028 132.544 187.096 132.829 187.206 133.086C187.322 133.339 187.49 133.549 187.712 133.717C187.935 133.88 188.227 133.978 188.59 134.011ZM193.103 131.772L193.118 131.603C193.17 131.03 193.301 130.506 193.511 130.031C193.722 129.551 194.001 129.144 194.347 128.809C194.699 128.471 195.111 128.221 195.585 128.061C196.064 127.897 196.593 127.841 197.171 127.893C197.754 127.945 198.264 128.095 198.701 128.342C199.144 128.584 199.507 128.903 199.793 129.299C200.079 129.69 200.283 130.141 200.405 130.651C200.527 131.156 200.563 131.695 200.511 132.268L200.496 132.437C200.444 133.01 200.313 133.534 200.103 134.009C199.892 134.484 199.611 134.891 199.259 135.23C198.908 135.564 198.496 135.813 198.022 135.978C197.548 136.138 197.022 136.192 196.444 136.14C195.861 136.087 195.348 135.94 194.906 135.698C194.469 135.451 194.107 135.132 193.821 134.741C193.536 134.345 193.332 133.894 193.209 133.389C193.087 132.884 193.051 132.345 193.103 131.772ZM194.889 131.762L194.874 131.931C194.842 132.289 194.848 132.63 194.893 132.955C194.938 133.28 195.028 133.57 195.163 133.824C195.298 134.078 195.482 134.285 195.715 134.444C195.947 134.604 196.233 134.698 196.571 134.729C196.899 134.758 197.189 134.715 197.442 134.6C197.699 134.485 197.917 134.314 198.095 134.088C198.274 133.862 198.414 133.593 198.516 133.281C198.623 132.97 198.693 132.635 198.725 132.278L198.74 132.109C198.772 131.756 198.763 131.419 198.712 131.099C198.668 130.774 198.575 130.481 198.436 130.222C198.301 129.963 198.117 129.754 197.885 129.594C197.657 129.431 197.377 129.334 197.044 129.304C196.711 129.274 196.415 129.319 196.158 129.439C195.905 129.555 195.69 129.728 195.511 129.959C195.332 130.19 195.191 130.461 195.089 130.773C194.988 131.08 194.921 131.41 194.889 131.762ZM203.972 130.283L203.402 136.617L201.631 136.458L202.346 128.507L204.014 128.657L203.972 130.283ZM203.499 132.322L202.897 132.26C202.947 131.712 203.061 131.211 203.24 130.758C203.419 130.304 203.656 129.918 203.952 129.599C204.247 129.275 204.6 129.038 205.008 128.887C205.422 128.731 205.889 128.677 206.408 128.724C206.771 128.756 207.097 128.84 207.386 128.975C207.681 129.105 207.928 129.293 208.128 129.538C208.333 129.783 208.479 130.088 208.565 130.451C208.655 130.815 208.678 131.247 208.633 131.746L208.157 137.045L206.386 136.886L206.848 131.741C206.883 131.354 206.852 131.045 206.754 130.814C206.661 130.584 206.511 130.412 206.304 130.3C206.102 130.183 205.854 130.111 205.56 130.085C205.227 130.055 204.937 130.093 204.69 130.199C204.449 130.306 204.244 130.463 204.078 130.67C203.911 130.877 203.78 131.122 203.685 131.405C203.591 131.688 203.529 131.994 203.499 132.322ZM208.473 132.295L207.626 132.404C207.669 131.924 207.776 131.477 207.947 131.062C208.122 130.644 208.355 130.284 208.644 129.984C208.938 129.68 209.287 129.452 209.69 129.3C210.094 129.149 210.546 129.096 211.046 129.141C211.452 129.177 211.81 129.266 212.118 129.408C212.432 129.545 212.691 129.741 212.895 129.996C213.099 130.252 213.243 130.573 213.327 130.961C213.411 131.344 213.429 131.8 213.382 132.329L212.919 137.473L211.14 137.313L211.604 132.162C211.64 131.76 211.609 131.444 211.511 131.213C211.418 130.982 211.27 130.816 211.067 130.713C210.864 130.606 210.616 130.539 210.322 130.513C210.048 130.488 209.801 130.518 209.581 130.602C209.366 130.681 209.18 130.805 209.021 130.974C208.863 131.137 208.737 131.331 208.643 131.555C208.554 131.779 208.497 132.026 208.473 132.295ZM218.234 138.1C217.646 138.047 217.123 137.903 216.665 137.67C216.212 137.431 215.835 137.123 215.533 136.745C215.236 136.368 215.02 135.936 214.886 135.45C214.752 134.964 214.71 134.449 214.758 133.905L214.785 133.611C214.841 132.989 214.982 132.434 215.209 131.945C215.436 131.457 215.727 131.048 216.082 130.72C216.438 130.386 216.845 130.144 217.303 129.993C217.761 129.841 218.248 129.789 218.762 129.835C219.33 129.886 219.819 130.026 220.228 130.256C220.637 130.485 220.966 130.786 221.214 131.159C221.467 131.528 221.641 131.956 221.735 132.443C221.835 132.931 221.859 133.462 221.807 134.035L221.739 134.792L215.595 134.24L215.71 132.968L220.104 133.363L220.117 133.224C220.136 132.904 220.099 132.6 220.006 132.31C219.919 132.021 219.765 131.78 219.545 131.587C219.326 131.394 219.02 131.28 218.628 131.245C218.334 131.219 218.066 131.259 217.824 131.366C217.588 131.468 217.383 131.63 217.21 131.851C217.037 132.073 216.894 132.346 216.781 132.672C216.673 132.993 216.6 133.359 216.563 133.771L216.537 134.065C216.506 134.413 216.523 134.74 216.589 135.048C216.661 135.35 216.78 135.62 216.946 135.858C217.113 136.095 217.322 136.289 217.575 136.44C217.829 136.586 218.125 136.675 218.463 136.705C218.889 136.743 219.276 136.692 219.625 136.55C219.974 136.409 220.284 136.192 220.558 135.901L221.41 136.889C221.216 137.123 220.971 137.343 220.676 137.549C220.381 137.749 220.029 137.903 219.62 138.009C219.215 138.116 218.753 138.146 218.234 138.1ZM231.747 128.38L230.784 139.08L228.954 138.916L229.917 128.216L231.747 128.38ZM235.105 128.682L234.973 130.152L226.455 129.386L226.588 127.916L235.105 128.682ZM239.019 138.213L239.36 134.421C239.385 134.137 239.356 133.887 239.272 133.672C239.187 133.457 239.045 133.284 238.844 133.152C238.649 133.021 238.394 132.942 238.08 132.913C237.791 132.887 237.537 132.914 237.318 132.993C237.098 133.072 236.922 133.189 236.79 133.345C236.657 133.501 236.581 133.685 236.562 133.895L234.799 133.737C234.827 133.423 234.93 133.126 235.108 132.846C235.287 132.566 235.531 132.323 235.84 132.119C236.15 131.915 236.512 131.765 236.926 131.669C237.339 131.572 237.796 131.547 238.296 131.592C238.893 131.645 239.413 131.794 239.856 132.036C240.303 132.279 240.641 132.615 240.869 133.046C241.102 133.472 241.192 133.988 241.137 134.596L240.819 138.131C240.786 138.493 240.782 138.821 240.805 139.115C240.833 139.404 240.887 139.658 240.966 139.877L240.955 139.995L239.14 139.832C239.074 139.633 239.03 139.385 239.007 139.086C238.99 138.784 238.994 138.492 239.019 138.213ZM239.568 134.995L239.484 136.092L238.212 135.977C237.884 135.948 237.592 135.954 237.337 135.995C237.081 136.031 236.865 136.101 236.688 136.203C236.511 136.306 236.373 136.437 236.275 136.596C236.177 136.755 236.118 136.94 236.099 137.151C236.08 137.361 236.112 137.559 236.194 137.744C236.276 137.925 236.406 138.072 236.584 138.187C236.766 138.302 236.992 138.372 237.261 138.396C237.624 138.429 237.947 138.383 238.229 138.261C238.517 138.134 238.749 137.969 238.926 137.768C239.102 137.561 239.204 137.361 239.232 137.166L239.734 138.003C239.657 138.199 239.537 138.406 239.375 138.623C239.212 138.841 239.006 139.044 238.757 139.234C238.513 139.42 238.226 139.564 237.895 139.668C237.57 139.772 237.201 139.806 236.79 139.769C236.27 139.722 235.817 139.577 235.429 139.335C235.041 139.088 234.748 138.777 234.549 138.404C234.351 138.026 234.272 137.611 234.313 137.16C234.351 136.739 234.463 136.374 234.648 136.064C234.84 135.751 235.1 135.497 235.428 135.305C235.761 135.112 236.159 134.98 236.619 134.908C237.081 134.831 237.6 134.819 238.179 134.871L239.568 134.995ZM244.573 132.305L245.85 135.079L247.63 132.579L249.578 132.755L246.816 136.44L248.958 140.715L247.011 140.54L245.641 137.646L243.777 140.249L241.822 140.073L244.685 136.248L242.633 132.13L244.573 132.305Z" fill="white"/>
<path d="M140.52 147.976C140.537 147.787 140.522 147.617 140.476 147.467C140.433 147.314 140.345 147.172 140.211 147.04C140.081 146.909 139.895 146.778 139.653 146.648C139.414 146.518 139.109 146.38 138.737 146.235C138.347 146.08 137.998 145.916 137.688 145.743C137.379 145.565 137.118 145.372 136.905 145.162C136.693 144.952 136.536 144.72 136.436 144.464C136.335 144.209 136.299 143.923 136.328 143.608C136.356 143.293 136.447 143.008 136.601 142.753C136.755 142.498 136.961 142.283 137.219 142.108C137.482 141.93 137.787 141.8 138.134 141.719C138.481 141.638 138.863 141.617 139.278 141.654C139.886 141.709 140.39 141.872 140.792 142.143C141.197 142.411 141.495 142.743 141.683 143.137C141.872 143.528 141.948 143.934 141.91 144.357L140.842 144.261C140.87 143.957 140.829 143.682 140.72 143.437C140.612 143.188 140.432 142.985 140.181 142.828C139.93 142.667 139.603 142.569 139.199 142.532C138.817 142.498 138.497 142.527 138.238 142.62C137.979 142.712 137.78 142.851 137.64 143.037C137.504 143.223 137.424 143.441 137.402 143.694C137.386 143.864 137.408 144.023 137.465 144.17C137.527 144.314 137.629 144.452 137.77 144.584C137.915 144.717 138.102 144.844 138.33 144.965C138.562 145.087 138.84 145.209 139.166 145.332C139.614 145.503 139.997 145.683 140.316 145.872C140.636 146.062 140.894 146.266 141.091 146.486C141.292 146.702 141.433 146.941 141.514 147.202C141.599 147.46 141.627 147.747 141.599 148.062C141.569 148.391 141.476 148.684 141.318 148.939C141.161 149.194 140.95 149.404 140.684 149.571C140.419 149.738 140.107 149.857 139.75 149.93C139.396 149.999 139.006 150.014 138.58 149.976C138.205 149.942 137.841 149.857 137.487 149.721C137.137 149.585 136.823 149.399 136.545 149.165C136.271 148.931 136.059 148.654 135.908 148.334C135.762 148.011 135.707 147.647 135.743 147.243L136.81 147.339C136.785 147.617 136.818 147.861 136.907 148.071C136.997 148.277 137.129 148.454 137.302 148.6C137.48 148.747 137.684 148.862 137.916 148.947C138.151 149.028 138.399 149.08 138.658 149.103C139.033 149.137 139.354 149.113 139.623 149.033C139.892 148.952 140.102 148.822 140.252 148.641C140.407 148.461 140.496 148.239 140.52 147.976ZM146.432 149.169L146.848 144.543L147.882 144.636L147.341 150.652L146.357 150.563L146.432 149.169ZM146.74 147.919L147.169 147.946C147.133 148.346 147.057 148.713 146.942 149.047C146.83 149.377 146.67 149.657 146.462 149.889C146.255 150.121 145.994 150.293 145.681 150.407C145.369 150.517 144.998 150.553 144.568 150.514C144.275 150.488 144.01 150.421 143.773 150.314C143.54 150.207 143.344 150.057 143.186 149.863C143.028 149.67 142.913 149.426 142.842 149.132C142.775 148.838 142.76 148.491 142.796 148.091L143.145 144.21L144.173 144.303L143.823 148.194C143.799 148.465 143.809 148.692 143.852 148.875C143.899 149.055 143.97 149.202 144.065 149.315C144.163 149.424 144.275 149.505 144.401 149.558C144.531 149.611 144.666 149.643 144.807 149.656C145.245 149.695 145.599 149.643 145.87 149.499C146.141 149.352 146.345 149.14 146.481 148.865C146.622 148.586 146.709 148.271 146.74 147.919ZM151.382 150.275C151.627 150.297 151.857 150.268 152.074 150.186C152.29 150.105 152.473 149.983 152.622 149.821C152.772 149.655 152.866 149.46 152.905 149.235L153.883 149.323C153.833 149.678 153.682 149.998 153.432 150.286C153.186 150.57 152.877 150.791 152.504 150.948C152.132 151.101 151.732 151.159 151.306 151.121C150.854 151.08 150.466 150.965 150.143 150.775C149.824 150.586 149.566 150.342 149.368 150.044C149.175 149.746 149.038 149.413 148.96 149.043C148.885 148.67 148.865 148.282 148.902 147.878L148.923 147.644C148.959 147.24 149.047 146.863 149.187 146.513C149.331 146.16 149.525 145.854 149.768 145.596C150.016 145.338 150.313 145.144 150.661 145.015C151.013 144.886 151.415 144.842 151.867 144.882C152.338 144.925 152.741 145.058 153.075 145.283C153.41 145.503 153.663 145.788 153.834 146.135C154.008 146.48 154.086 146.861 154.067 147.277L153.089 147.189C153.093 146.939 153.042 146.709 152.938 146.498C152.837 146.287 152.689 146.113 152.492 145.976C152.299 145.835 152.065 145.752 151.791 145.728C151.476 145.699 151.205 145.738 150.979 145.845C150.757 145.948 150.573 146.1 150.428 146.3C150.287 146.497 150.177 146.72 150.099 146.971C150.024 147.218 149.975 147.474 149.951 147.737L149.93 147.97C149.907 148.233 149.909 148.495 149.938 148.756C149.967 149.016 150.033 149.256 150.137 149.474C150.244 149.693 150.398 149.875 150.598 150.02C150.802 150.162 151.063 150.247 151.382 150.275ZM157.342 150.811C157.587 150.833 157.817 150.804 158.034 150.722C158.25 150.641 158.433 150.519 158.582 150.357C158.732 150.191 158.826 149.996 158.865 149.771L159.843 149.859C159.793 150.214 159.642 150.535 159.392 150.822C159.146 151.106 158.837 151.327 158.464 151.484C158.092 151.637 157.692 151.695 157.266 151.657C156.814 151.616 156.426 151.501 156.103 151.311C155.784 151.122 155.526 150.878 155.328 150.58C155.135 150.282 154.998 149.949 154.92 149.579C154.845 149.206 154.826 148.818 154.862 148.414L154.883 148.18C154.919 147.776 155.007 147.399 155.147 147.049C155.291 146.696 155.485 146.39 155.728 146.132C155.976 145.874 156.273 145.68 156.621 145.551C156.973 145.422 157.375 145.378 157.827 145.419C158.298 145.461 158.701 145.594 159.035 145.819C159.37 146.039 159.623 146.324 159.794 146.672C159.968 147.016 160.046 147.397 160.027 147.813L159.049 147.725C159.053 147.475 159.002 147.245 158.898 147.034C158.797 146.823 158.649 146.649 158.452 146.512C158.259 146.371 158.025 146.288 157.751 146.264C157.436 146.235 157.165 146.274 156.939 146.381C156.717 146.484 156.533 146.636 156.388 146.836C156.247 147.033 156.137 147.256 156.059 147.507C155.984 147.754 155.935 148.01 155.911 148.273L155.89 148.506C155.867 148.769 155.869 149.031 155.898 149.292C155.927 149.552 155.993 149.792 156.097 150.01C156.204 150.229 156.358 150.411 156.558 150.556C156.762 150.698 157.023 150.783 157.342 150.811ZM163.315 152.201C162.896 152.163 162.523 152.058 162.194 151.887C161.87 151.712 161.597 151.484 161.376 151.202C161.158 150.921 161.001 150.597 160.903 150.229C160.805 149.862 160.775 149.467 160.813 149.044L160.834 148.811C160.878 148.322 160.99 147.893 161.169 147.524C161.348 147.151 161.574 146.843 161.846 146.598C162.118 146.354 162.418 146.177 162.746 146.068C163.073 145.959 163.405 145.92 163.743 145.951C164.173 145.989 164.537 146.097 164.835 146.273C165.136 146.45 165.375 146.68 165.551 146.965C165.728 147.246 165.848 147.571 165.912 147.939C165.977 148.304 165.99 148.697 165.952 149.12L165.91 149.581L161.418 149.177L161.493 148.338L164.957 148.649L164.964 148.571C164.973 148.303 164.941 148.039 164.867 147.778C164.797 147.518 164.668 147.297 164.479 147.115C164.289 146.934 164.019 146.827 163.667 146.796C163.433 146.775 163.214 146.805 163.008 146.888C162.803 146.966 162.621 147.096 162.463 147.276C162.305 147.456 162.175 147.682 162.072 147.953C161.969 148.224 161.901 148.541 161.869 148.904L161.848 149.137C161.822 149.423 161.837 149.695 161.892 149.954C161.951 150.21 162.048 150.439 162.183 150.642C162.322 150.845 162.496 151.01 162.705 151.137C162.917 151.264 163.164 151.341 163.446 151.366C163.809 151.399 164.124 151.352 164.389 151.227C164.654 151.101 164.893 150.923 165.104 150.691L165.682 151.242C165.535 151.427 165.353 151.599 165.137 151.759C164.921 151.919 164.661 152.041 164.359 152.126C164.06 152.212 163.712 152.236 163.315 152.201ZM170.513 151.127C170.526 150.979 170.505 150.839 170.45 150.707C170.398 150.572 170.277 150.443 170.086 150.321C169.9 150.196 169.612 150.077 169.222 149.963C168.895 149.863 168.6 149.752 168.338 149.631C168.08 149.511 167.863 149.374 167.686 149.22C167.513 149.066 167.385 148.892 167.301 148.698C167.218 148.503 167.187 148.282 167.21 148.034C167.231 147.796 167.303 147.577 167.426 147.375C167.552 147.173 167.719 147 167.927 146.854C168.138 146.708 168.385 146.602 168.667 146.534C168.95 146.466 169.26 146.447 169.597 146.477C170.079 146.52 170.483 146.643 170.808 146.844C171.134 147.045 171.375 147.297 171.531 147.598C171.687 147.896 171.75 148.218 171.719 148.562L170.69 148.47C170.705 148.303 170.67 148.137 170.584 147.973C170.502 147.805 170.371 147.66 170.191 147.539C170.015 147.419 169.792 147.347 169.521 147.322C169.236 147.297 169 147.32 168.814 147.393C168.632 147.463 168.495 147.561 168.401 147.687C168.311 147.813 168.26 147.95 168.246 148.099C168.236 148.21 168.246 148.312 168.275 148.404C168.308 148.493 168.371 148.579 168.465 148.662C168.558 148.741 168.693 148.821 168.869 148.9C169.045 148.98 169.271 149.063 169.547 149.152C170.03 149.307 170.424 149.477 170.729 149.662C171.033 149.846 171.254 150.058 171.389 150.298C171.524 150.538 171.577 150.82 171.548 151.142C171.525 151.405 171.447 151.641 171.317 151.85C171.189 152.059 171.015 152.234 170.793 152.374C170.575 152.512 170.319 152.612 170.026 152.675C169.737 152.735 169.416 152.749 169.064 152.718C168.534 152.67 168.094 152.535 167.744 152.313C167.394 152.091 167.138 151.821 166.976 151.504C166.814 151.187 166.748 150.862 166.778 150.528L167.812 150.621C167.801 150.904 167.863 151.136 167.996 151.316C168.13 151.492 168.301 151.625 168.509 151.715C168.718 151.801 168.929 151.854 169.14 151.873C169.422 151.898 169.66 151.882 169.856 151.825C170.055 151.768 170.211 151.679 170.323 151.559C170.434 151.438 170.498 151.294 170.513 151.127ZM176.395 151.656C176.408 151.508 176.387 151.368 176.332 151.236C176.281 151.101 176.16 150.972 175.969 150.85C175.782 150.725 175.494 150.606 175.104 150.492C174.777 150.392 174.482 150.281 174.22 150.161C173.962 150.04 173.745 149.903 173.568 149.749C173.395 149.595 173.267 149.421 173.183 149.227C173.1 149.032 173.07 148.811 173.092 148.563C173.113 148.325 173.185 148.106 173.308 147.904C173.435 147.702 173.601 147.529 173.809 147.383C174.02 147.237 174.267 147.131 174.549 147.063C174.832 146.995 175.142 146.976 175.479 147.006C175.961 147.05 176.365 147.172 176.691 147.373C177.016 147.574 177.257 147.826 177.413 148.127C177.569 148.425 177.632 148.747 177.601 149.091L176.572 148.999C176.587 148.832 176.552 148.666 176.466 148.502C176.384 148.334 176.253 148.189 176.073 148.068C175.897 147.948 175.674 147.876 175.403 147.851C175.118 147.826 174.882 147.849 174.696 147.922C174.514 147.992 174.377 148.09 174.283 148.216C174.193 148.342 174.142 148.48 174.128 148.628C174.118 148.739 174.128 148.841 174.157 148.933C174.19 149.022 174.253 149.108 174.347 149.191C174.441 149.271 174.575 149.35 174.751 149.429C174.927 149.509 175.153 149.592 175.429 149.681C175.912 149.836 176.306 150.006 176.611 150.191C176.916 150.375 177.136 150.587 177.271 150.827C177.406 151.067 177.46 151.349 177.431 151.671C177.407 151.934 177.33 152.17 177.199 152.379C177.072 152.588 176.897 152.763 176.675 152.903C176.457 153.041 176.202 153.141 175.908 153.204C175.619 153.264 175.298 153.278 174.946 153.247C174.416 153.199 173.976 153.064 173.626 152.842C173.276 152.62 173.02 152.351 172.858 152.033C172.696 151.716 172.63 151.391 172.66 151.057L173.694 151.15C173.684 151.433 173.745 151.665 173.878 151.845C174.012 152.021 174.183 152.154 174.392 152.244C174.601 152.33 174.811 152.383 175.022 152.402C175.304 152.427 175.542 152.411 175.738 152.354C175.938 152.297 176.093 152.208 176.205 152.088C176.317 151.967 176.38 151.823 176.395 151.656ZM180.166 153.604L179.137 153.512L179.735 146.862C179.774 146.428 179.885 146.07 180.067 145.788C180.253 145.502 180.502 145.296 180.812 145.171C181.122 145.042 181.482 144.996 181.889 145.033C182.008 145.043 182.126 145.061 182.243 145.087C182.364 145.113 182.481 145.146 182.593 145.186L182.462 146.02C182.386 145.995 182.298 145.974 182.198 145.957C182.103 145.941 182.007 145.929 181.91 145.92C181.692 145.9 181.499 145.928 181.331 146.002C181.168 146.074 181.038 146.189 180.941 146.349C180.845 146.508 180.786 146.71 180.764 146.955L180.166 153.604ZM181.985 147.703L181.914 148.493L178.656 148.2L178.727 147.41L181.985 147.703ZM186.395 152.763L186.811 148.138L187.845 148.231L187.304 154.246L186.32 154.158L186.395 152.763ZM186.704 151.513L187.133 151.54C187.097 151.941 187.021 152.308 186.905 152.641C186.793 152.971 186.633 153.252 186.426 153.483C186.218 153.715 185.958 153.888 185.645 154.002C185.332 154.112 184.961 154.148 184.531 154.109C184.238 154.083 183.973 154.016 183.736 153.908C183.503 153.802 183.307 153.651 183.149 153.458C182.991 153.264 182.877 153.02 182.806 152.726C182.739 152.433 182.723 152.085 182.759 151.685L183.108 147.804L184.137 147.897L183.787 151.789C183.763 152.059 183.772 152.286 183.815 152.47C183.863 152.649 183.934 152.796 184.028 152.909C184.127 153.019 184.239 153.1 184.365 153.152C184.495 153.205 184.63 153.238 184.771 153.25C185.208 153.29 185.562 153.238 185.833 153.094C186.104 152.946 186.308 152.735 186.445 152.459C186.586 152.181 186.672 151.865 186.704 151.513ZM190.758 145.948L189.99 154.488L188.956 154.395L189.724 145.855L190.758 145.948Z" fill="#E6E7E7"/>
<path d="M291.997 133.799L291.035 144.499L289.006 144.317L285.125 136.485L284.457 143.908L282.436 143.726L283.399 133.026L285.42 133.208L289.315 141.048L289.983 133.618L291.997 133.799ZM295.211 139.911L293.694 139.397L294.775 134.049L300.661 134.578L300.517 136.188L296.24 135.803L295.736 138.277C295.896 138.197 296.125 138.124 296.422 138.057C296.725 137.985 297.06 137.966 297.427 137.999C297.937 138.045 298.385 138.169 298.772 138.372C299.159 138.57 299.478 138.836 299.73 139.169C299.986 139.504 300.165 139.9 300.267 140.359C300.375 140.813 300.403 141.319 300.353 141.878C300.309 142.368 300.194 142.822 300.008 143.239C299.828 143.653 299.576 144.013 299.252 144.32C298.928 144.622 298.535 144.848 298.072 144.999C297.609 145.145 297.077 145.191 296.474 145.137C296.019 145.096 295.586 144.99 295.177 144.82C294.773 144.645 294.416 144.413 294.106 144.124C293.796 143.829 293.558 143.482 293.392 143.081C293.23 142.682 293.162 142.233 293.187 141.737L295.105 141.909C295.11 142.241 295.173 142.528 295.294 142.771C295.416 143.014 295.586 143.207 295.805 143.35C296.029 143.494 296.296 143.58 296.604 143.607C296.884 143.633 297.128 143.603 297.338 143.518C297.554 143.429 297.736 143.294 297.886 143.115C298.035 142.936 298.154 142.719 298.241 142.466C298.328 142.212 298.385 141.93 298.413 141.622C298.44 141.323 298.427 141.048 298.376 140.796C298.325 140.54 298.232 140.314 298.096 140.119C297.961 139.924 297.782 139.767 297.561 139.648C297.344 139.53 297.084 139.457 296.78 139.43C296.373 139.394 296.054 139.427 295.823 139.529C295.596 139.632 295.392 139.76 295.211 139.911ZM303.809 140.685L302.292 140.17L303.373 134.822L309.26 135.352L309.115 136.961L304.838 136.577L304.334 139.05C304.494 138.971 304.723 138.897 305.02 138.83C305.323 138.759 305.658 138.74 306.026 138.773C306.535 138.818 306.983 138.943 307.37 139.145C307.757 139.343 308.077 139.609 308.328 139.943C308.585 140.277 308.764 140.673 308.866 141.132C308.973 141.586 309.002 142.092 308.951 142.651C308.907 143.141 308.792 143.595 308.607 144.013C308.426 144.426 308.174 144.786 307.85 145.093C307.527 145.395 307.133 145.621 306.67 145.772C306.208 145.918 305.675 145.964 305.073 145.91C304.617 145.869 304.184 145.763 303.775 145.593C303.371 145.419 303.014 145.187 302.704 144.897C302.395 144.602 302.157 144.255 301.99 143.855C301.829 143.455 301.76 143.007 301.785 142.51L303.703 142.683C303.708 143.014 303.771 143.301 303.893 143.544C304.014 143.787 304.184 143.981 304.403 144.124C304.628 144.267 304.894 144.353 305.203 144.381C305.482 144.406 305.727 144.376 305.937 144.291C306.152 144.202 306.335 144.068 306.484 143.889C306.634 143.709 306.752 143.493 306.839 143.239C306.926 142.985 306.983 142.704 307.011 142.395C307.038 142.096 307.026 141.821 306.974 141.569C306.923 141.313 306.83 141.087 306.694 140.892C306.559 140.697 306.38 140.54 306.159 140.422C305.942 140.304 305.682 140.231 305.378 140.203C304.972 140.167 304.653 140.2 304.421 140.303C304.195 140.406 303.991 140.533 303.809 140.685ZM312.129 144.633L311.993 145.977C311.946 146.501 311.769 147.021 311.46 147.537C311.152 148.052 310.777 148.468 310.333 148.784L309.355 148.125C309.508 147.917 309.65 147.705 309.783 147.489C309.921 147.275 310.036 147.038 310.128 146.78C310.225 146.527 310.288 146.238 310.317 145.915L310.446 144.482L312.129 144.633ZM321.229 140.896L321.067 142.696C320.993 143.519 320.847 144.215 320.628 144.783C320.409 145.351 320.126 145.807 319.779 146.151C319.432 146.49 319.033 146.729 318.581 146.866C318.13 146.998 317.637 147.04 317.103 146.992C316.677 146.954 316.285 146.864 315.927 146.723C315.57 146.578 315.254 146.376 314.981 146.12C314.713 145.858 314.49 145.537 314.312 145.156C314.139 144.775 314.019 144.327 313.951 143.812C313.889 143.298 313.887 142.712 313.946 142.056L314.108 140.255C314.182 139.432 314.329 138.739 314.547 138.176C314.771 137.613 315.056 137.162 315.402 136.823C315.749 136.484 316.148 136.25 316.599 136.123C317.05 135.991 317.543 135.949 318.077 135.997C318.508 136.035 318.9 136.125 319.253 136.265C319.611 136.406 319.924 136.605 320.192 136.861C320.466 137.113 320.689 137.429 320.862 137.81C321.036 138.187 321.154 138.632 321.216 139.146C321.284 139.656 321.288 140.239 321.229 140.896ZM319.104 142.786L319.314 140.449C319.351 140.038 319.358 139.678 319.337 139.37C319.32 139.057 319.278 138.789 319.209 138.566C319.14 138.342 319.046 138.158 318.925 138.014C318.805 137.865 318.662 137.751 318.497 137.672C318.331 137.593 318.145 137.544 317.939 137.525C317.685 137.502 317.452 137.533 317.242 137.618C317.032 137.698 316.849 137.84 316.693 138.043C316.536 138.246 316.405 138.523 316.299 138.874C316.199 139.221 316.126 139.649 316.08 140.158L315.87 142.495C315.833 142.907 315.823 143.269 315.839 143.582C315.86 143.895 315.905 144.165 315.973 144.394C316.047 144.623 316.141 144.814 316.255 144.967C316.375 145.116 316.518 145.233 316.683 145.317C316.849 145.396 317.035 145.445 317.24 145.463C317.5 145.487 317.732 145.456 317.938 145.371C318.148 145.286 318.331 145.139 318.488 144.931C318.646 144.718 318.775 144.436 318.876 144.084C318.982 143.728 319.058 143.296 319.104 142.786ZM329.828 141.669L329.666 143.47C329.592 144.293 329.445 144.988 329.226 145.556C329.007 146.124 328.724 146.58 328.377 146.924C328.03 147.264 327.631 147.502 327.179 147.639C326.728 147.771 326.235 147.813 325.701 147.765C325.275 147.727 324.883 147.637 324.525 147.497C324.168 147.351 323.853 147.15 323.579 146.893C323.311 146.632 323.088 146.31 322.91 145.929C322.737 145.548 322.617 145.1 322.55 144.585C322.487 144.071 322.486 143.486 322.545 142.829L322.707 141.029C322.781 140.205 322.927 139.512 323.145 138.949C323.369 138.386 323.654 137.936 324.001 137.596C324.347 137.257 324.746 137.024 325.197 136.896C325.648 136.764 326.141 136.722 326.675 136.77C327.106 136.809 327.498 136.898 327.851 137.039C328.209 137.18 328.522 137.378 328.79 137.634C329.064 137.886 329.287 138.203 329.461 138.584C329.634 138.96 329.752 139.405 329.815 139.919C329.882 140.429 329.887 141.013 329.828 141.669ZM327.702 143.56L327.912 141.223C327.949 140.811 327.957 140.451 327.935 140.143C327.919 139.83 327.876 139.562 327.807 139.339C327.739 139.115 327.644 138.932 327.524 138.787C327.404 138.638 327.261 138.524 327.095 138.445C326.929 138.366 326.744 138.317 326.538 138.299C326.283 138.276 326.051 138.307 325.84 138.391C325.631 138.471 325.448 138.613 325.291 138.816C325.134 139.019 325.003 139.297 324.898 139.648C324.797 139.994 324.724 140.422 324.678 140.932L324.468 143.269C324.431 143.68 324.421 144.042 324.437 144.355C324.458 144.668 324.503 144.939 324.572 145.167C324.645 145.396 324.739 145.587 324.853 145.741C324.973 145.89 325.116 146.006 325.281 146.09C325.447 146.17 325.633 146.218 325.839 146.237C326.098 146.26 326.331 146.229 326.536 146.144C326.746 146.059 326.93 145.913 327.087 145.705C327.244 145.492 327.373 145.209 327.474 144.858C327.58 144.502 327.656 144.069 327.702 143.56ZM338.426 142.442L338.264 144.243C338.19 145.066 338.043 145.762 337.824 146.33C337.605 146.898 337.322 147.354 336.975 147.698C336.629 148.037 336.23 148.275 335.778 148.412C335.326 148.545 334.833 148.587 334.299 148.539C333.873 148.5 333.481 148.411 333.123 148.27C332.766 148.124 332.451 147.923 332.178 147.666C331.91 147.405 331.687 147.084 331.509 146.702C331.335 146.321 331.215 145.873 331.148 145.359C331.086 144.844 331.084 144.259 331.143 143.602L331.305 141.802C331.379 140.979 331.525 140.286 331.744 139.723C331.967 139.16 332.252 138.709 332.599 138.37C332.945 138.03 333.344 137.797 333.795 137.67C334.247 137.537 334.739 137.495 335.274 137.543C335.705 137.582 336.097 137.672 336.45 137.812C336.807 137.953 337.12 138.152 337.389 138.408C337.662 138.66 337.886 138.976 338.059 139.357C338.233 139.733 338.351 140.178 338.413 140.693C338.481 141.203 338.485 141.786 338.426 142.442ZM336.3 144.333L336.51 141.996C336.547 141.584 336.555 141.225 336.533 140.916C336.517 140.604 336.474 140.336 336.406 140.112C336.337 139.889 336.242 139.705 336.122 139.561C336.002 139.412 335.859 139.298 335.693 139.218C335.528 139.139 335.342 139.09 335.136 139.072C334.881 139.049 334.649 139.08 334.439 139.165C334.229 139.245 334.046 139.386 333.889 139.59C333.733 139.793 333.602 140.07 333.496 140.421C333.396 140.768 333.323 141.196 333.277 141.705L333.067 144.042C333.03 144.454 333.019 144.816 333.036 145.128C333.057 145.441 333.102 145.712 333.17 145.941C333.243 146.169 333.337 146.361 333.452 146.514C333.572 146.663 333.714 146.78 333.88 146.864C334.045 146.943 334.231 146.992 334.437 147.01C334.697 147.034 334.929 147.003 335.134 146.917C335.344 146.832 335.528 146.686 335.685 146.478C335.842 146.265 335.971 145.983 336.072 145.631C336.178 145.275 336.254 144.842 336.3 144.333ZM339.645 147.916C339.671 147.622 339.794 147.383 340.013 147.201C340.232 147.018 340.513 146.942 340.856 146.973C341.199 147.003 341.462 147.128 341.645 147.347C341.827 147.566 341.906 147.823 341.879 148.117C341.853 148.406 341.731 148.642 341.512 148.824C341.293 149.002 341.013 149.076 340.67 149.045C340.327 149.014 340.064 148.892 339.88 148.678C339.697 148.459 339.619 148.205 339.645 147.916ZM355.049 143.937L354.887 145.738C354.813 146.561 354.667 147.257 354.448 147.825C354.229 148.393 353.946 148.849 353.599 149.193C353.252 149.532 352.853 149.77 352.401 149.908C351.95 150.04 351.457 150.082 350.923 150.034C350.497 149.996 350.105 149.906 349.747 149.765C349.389 149.619 349.074 149.418 348.801 149.161C348.533 148.9 348.31 148.579 348.132 148.197C347.959 147.816 347.839 147.369 347.771 146.854C347.709 146.339 347.707 145.754 347.766 145.098L347.928 143.297C348.002 142.474 348.149 141.781 348.367 141.218C348.591 140.655 348.876 140.204 349.222 139.865C349.569 139.526 349.968 139.292 350.419 139.165C350.87 139.033 351.363 138.99 351.897 139.039C352.328 139.077 352.72 139.167 353.073 139.307C353.431 139.448 353.744 139.647 354.012 139.903C354.286 140.155 354.509 140.471 354.682 140.852C354.856 141.228 354.974 141.674 355.036 142.188C355.104 142.698 355.108 143.281 355.049 143.937ZM352.923 145.828L353.134 143.491C353.171 143.08 353.178 142.72 353.157 142.412C353.14 142.099 353.098 141.831 353.029 141.607C352.96 141.384 352.866 141.2 352.745 141.056C352.625 140.907 352.482 140.793 352.317 140.714C352.151 140.634 351.965 140.586 351.759 140.567C351.505 140.544 351.272 140.575 351.062 140.66C350.852 140.74 350.669 140.881 350.513 141.085C350.356 141.288 350.225 141.565 350.119 141.916C350.019 142.263 349.946 142.691 349.9 143.2L349.69 145.537C349.653 145.949 349.643 146.311 349.659 146.623C349.68 146.937 349.725 147.207 349.793 147.436C349.867 147.665 349.96 147.856 350.075 148.009C350.195 148.158 350.338 148.275 350.503 148.359C350.669 148.438 350.854 148.487 351.06 148.505C351.32 148.529 351.552 148.498 351.758 148.412C351.968 148.328 352.151 148.181 352.308 147.973C352.466 147.76 352.595 147.478 352.696 147.126C352.802 146.77 352.878 146.338 352.923 145.828ZM363.648 144.711L363.486 146.511C363.412 147.334 363.265 148.03 363.046 148.598C362.827 149.166 362.544 149.622 362.197 149.966C361.85 150.306 361.451 150.544 360.999 150.681C360.548 150.813 360.055 150.855 359.521 150.807C359.095 150.769 358.703 150.679 358.345 150.538C357.988 150.393 357.672 150.192 357.399 149.935C357.131 149.674 356.908 149.352 356.73 148.971C356.557 148.59 356.437 148.142 356.37 147.627C356.307 147.113 356.306 146.527 356.365 145.871L356.526 144.07C356.601 143.247 356.747 142.554 356.965 141.991C357.189 141.428 357.474 140.977 357.821 140.638C358.167 140.299 358.566 140.066 359.017 139.938C359.468 139.806 359.961 139.764 360.495 139.812C360.926 139.851 361.318 139.94 361.671 140.081C362.029 140.221 362.342 140.42 362.61 140.676C362.884 140.928 363.107 141.245 363.281 141.626C363.454 142.002 363.572 142.447 363.635 142.961C363.702 143.471 363.707 144.054 363.648 144.711ZM361.522 146.601L361.732 144.264C361.769 143.853 361.777 143.493 361.755 143.185C361.739 142.872 361.696 142.604 361.627 142.381C361.558 142.157 361.464 141.973 361.344 141.829C361.224 141.68 361.081 141.566 360.915 141.487C360.749 141.408 360.563 141.359 360.358 141.34C360.103 141.318 359.87 141.348 359.66 141.433C359.451 141.513 359.268 141.655 359.111 141.858C358.954 142.061 358.823 142.338 358.718 142.689C358.617 143.036 358.544 143.464 358.498 143.974L358.288 146.311C358.251 146.722 358.241 147.084 358.257 147.397C358.278 147.71 358.323 147.981 358.392 148.209C358.465 148.438 358.559 148.629 358.673 148.783C358.793 148.932 358.936 149.048 359.101 149.132C359.267 149.211 359.453 149.26 359.659 149.279C359.918 149.302 360.151 149.271 360.356 149.186C360.566 149.101 360.75 148.955 360.907 148.746C361.064 148.533 361.193 148.251 361.294 147.9C361.4 147.544 361.476 147.111 361.522 146.601Z" fill="white"/>
</svg>
