<svg width="200" height="201" viewBox="0 0 200 201" fill="none" xmlns="http://www.w3.org/2000/svg">
<path d="M44.0946 85.9553C45.8501 46.4571 88.2538 21.7275 124.048 38.2164C155.176 52.5553 166.556 95.3553 144.489 122.413C144.269 122.681 143.009 124.248 142.817 124.215C136.046 116.52 127.322 110.413 117.556 107.189C118.071 106.448 118.737 105.848 119.3 105.142C130.133 91.572 124.987 70.5016 107.995 65.246C95.9705 61.5275 83.8242 66.1331 77.9668 77.3183C72.839 87.109 74.7594 98.7831 82.339 106.665C73.8446 110.576 65.7039 115.198 59.1335 121.946C58.8335 122.253 57.1983 124.263 56.9927 124.218C51.1613 117.607 47.3168 109.383 45.4353 100.774C44.7539 97.6534 44.2353 94.2497 44.0964 91.0886C44.0261 89.4831 44.0242 87.5609 44.0964 85.9553H44.0946Z" fill="#014239"/>
<path d="M88.4928 115.036C90.1169 114.828 90.9817 115.46 92.191 116.41C95.0373 118.647 97.0613 121.956 99.9076 124.213L109 115.254C110.217 114.617 113.174 115.6 114.469 116.054C120.578 118.2 130.847 123.886 134.28 129.484C134.971 130.61 135.663 132.104 134.759 133.328L99.9928 167.969L64.3835 132.095C64.2206 131.091 66.091 128.839 66.7743 128.074C71.041 123.299 75.9576 120.278 81.7187 117.593C83.4484 116.786 86.6854 115.271 88.4947 115.039L88.4928 115.036Z" fill="#014239"/>
<path d="M100.02 104.396C108.589 104.396 115.535 97.4454 115.535 88.8717C115.535 80.298 108.589 73.3477 100.02 73.3477C91.4516 73.3477 84.5054 80.298 84.5054 88.8717C84.5054 97.4454 91.4516 104.396 100.02 104.396Z" fill="#014239"/>
</svg>
