<svg xmlns="http://www.w3.org/2000/svg" width="83" height="43" viewBox="0 0 83 43" fill="none">
  <path fill-rule="evenodd" clip-rule="evenodd" d="M41.5 0.75C18.5803 0.75 0 10.0402 0 21.5C0 32.9598 18.5803 42.25 41.5 42.25C64.4197 42.25 83 32.9598 83 21.5C83 10.0402 64.4197 0.75 41.5 0.75ZM41.4999 38.976C20.3894 38.976 3.2758 31.1526 3.2758 21.5019C3.2758 11.8512 20.3894 4.02777 41.4999 4.02777C62.6104 4.02777 79.724 11.8512 79.724 21.5019C79.724 31.1526 62.6104 38.976 41.4999 38.976ZM36.268 14.5847V17.8612H40.4835V28.4184H43.7607V17.8612H47.9756V14.5847H36.268ZM62.1058 14.5847V28.4184H58.8299L52.8883 20.1833V28.4184H49.6124V14.5847H52.8883L58.8299 22.8198V14.5847H62.1058ZM20.7945 14.5847V28.4184H24.0704V20.5937L26.5552 24.413H28.8649L31.3497 20.5937V28.4184H34.6244V14.5847H31.3497L27.7101 20.1833L24.0704 14.5847H20.7945Z" fill="white"/>
</svg>