<svg xmlns="http://www.w3.org/2000/svg" width="77" height="32" viewBox="0 0 77 32" fill="none">
  <path fill-rule="evenodd" clip-rule="evenodd" d="M38.4 0C17.1924 0 0 7.1635 0 16C0 24.8365 17.1924 32 38.4 32C59.6076 32 76.8 24.8365 76.8 16C76.8 7.1635 59.6076 0 38.4 0ZM38.3997 29.474C18.8661 29.474 3.03086 23.4415 3.03086 16C3.03086 8.55854 18.8661 2.52604 38.3997 2.52604C57.9333 2.52604 73.7684 8.55854 73.7684 16C73.7684 23.4415 57.9333 29.474 38.3997 29.474ZM33.559 10.6667V13.1932H37.4596V21.3337H40.492V13.1932H44.392V10.6667H33.559ZM57.4668 10.6667V21.3337H54.4356L48.9378 14.9837V21.3337H45.9066V10.6667H48.9378L54.4356 17.0167V10.6667H57.4668ZM19.241 10.6667V21.3337H22.2722V15.3002L24.5714 18.2452H26.7086L29.0078 15.3002V21.3337H32.0378V10.6667H29.0078L25.64 14.9837L22.2722 10.6667H19.241Z" fill="black"/>
</svg>