<svg width="181" height="51" viewBox="0 0 181 51" fill="none" xmlns="http://www.w3.org/2000/svg">
<path d="M11.0236 22.1336C11.4625 12.2591 22.0635 6.07666 31.0121 10.1989C38.794 13.7836 41.6389 24.4836 36.1223 31.248C36.0672 31.3151 35.7524 31.7067 35.7042 31.6984C34.0116 29.7748 31.8306 28.248 29.3889 27.4419C29.5176 27.2567 29.6843 27.1067 29.825 26.9304C32.5334 23.5378 31.2468 18.2702 26.9986 16.9563C23.9926 16.0267 20.9561 17.178 19.4917 19.9743C18.2098 22.422 18.6899 25.3405 20.5848 27.3109C18.4611 28.2887 16.426 29.4442 14.7834 31.1313C14.7084 31.2081 14.2996 31.7105 14.2482 31.6993C12.7903 30.0466 11.8292 27.9905 11.3588 25.8382C11.1885 25.0581 11.0588 24.2072 11.0241 23.4169C11.0065 23.0155 11.0061 22.535 11.0241 22.1336H11.0236Z" fill="white"/>
<path d="M22.1232 29.4034C22.5292 29.3516 22.7454 29.5094 23.0477 29.7469C23.7593 30.3062 24.2653 31.1335 24.9769 31.6979L27.2501 29.4581C27.5542 29.2988 28.2936 29.5446 28.6172 29.6581C30.1445 30.1946 32.7116 31.6159 33.57 33.0155C33.7426 33.297 33.9158 33.6706 33.6899 33.9766L24.9982 42.6368L16.0959 33.6682C16.0551 33.4173 16.5227 32.8544 16.6936 32.6632C17.7602 31.4692 18.9894 30.7141 20.4297 30.0428C20.8621 29.8409 21.6713 29.4622 22.1237 29.4044L22.1232 29.4034Z" fill="white"/>
<path d="M25.005 26.7435C27.1472 26.7435 28.8838 25.0059 28.8838 22.8625C28.8838 20.719 27.1472 18.9814 25.005 18.9814C22.8629 18.9814 21.1263 20.719 21.1263 22.8625C21.1263 25.0059 22.8629 26.7435 25.005 26.7435Z" fill="white"/>
<path d="M51.913 16.815H55.7823L60.9641 29.4627H61.1687L66.3505 16.815H70.2198V34.2695H67.1857V22.2781H67.0238L62.1999 34.2184H59.9329L55.109 22.2525H54.9471V34.2695H51.913V16.815ZM75.4442 39.1786C75.0238 39.1786 74.6346 39.1445 74.2766 39.0763C73.9244 39.0138 73.6431 38.94 73.4329 38.8548L74.1488 36.4513C74.5977 36.582 74.9982 36.6445 75.3505 36.6388C75.7028 36.6332 76.0124 36.5224 76.2795 36.3065C76.5522 36.0962 76.7823 35.744 76.9698 35.2496L77.234 34.5423L72.4869 21.1786H75.7596L78.7766 31.065H78.913L81.9386 21.1786H85.2198L79.9783 35.8548C79.734 36.5479 79.4102 37.1417 79.0067 37.636C78.6033 38.136 78.109 38.5167 77.5238 38.7781C76.9442 39.0451 76.2511 39.1786 75.4442 39.1786ZM102.431 22.7042H99.244C99.1531 22.1815 98.9854 21.7184 98.7411 21.315C98.4968 20.9059 98.1928 20.5593 97.8292 20.2752C97.4656 19.9911 97.0508 19.7781 96.5849 19.636C96.1246 19.4883 95.6275 19.4144 95.0934 19.4144C94.1445 19.4144 93.3036 19.6531 92.5707 20.1303C91.8377 20.6019 91.2638 21.2951 90.8491 22.2099C90.4343 23.119 90.2269 24.2298 90.2269 25.5423C90.2269 26.8775 90.4343 28.0025 90.8491 28.9173C91.2695 29.8263 91.8434 30.5138 92.5707 30.9798C93.3036 31.44 94.1417 31.6701 95.0849 31.6701C95.6076 31.6701 96.0962 31.6019 96.5508 31.4656C97.011 31.3235 97.4229 31.1161 97.7866 30.8434C98.1559 30.5707 98.4656 30.2354 98.7156 29.8377C98.9712 29.44 99.1474 28.9854 99.244 28.4741L102.431 28.4911C102.312 29.3207 102.054 30.0991 101.656 30.8263C101.264 31.5536 100.75 32.1957 100.113 32.7525C99.4769 33.3036 98.7326 33.7354 97.8803 34.0479C97.0281 34.3548 96.082 34.5082 95.0423 34.5082C93.5082 34.5082 92.1388 34.1531 90.9343 33.4428C89.7298 32.7326 88.7809 31.707 88.0877 30.3661C87.3945 29.0252 87.0479 27.4173 87.0479 25.5423C87.0479 23.6616 87.3974 22.0536 88.0962 20.7184C88.7951 19.3775 89.7468 18.3519 90.9513 17.6417C92.1559 16.9315 93.5195 16.5763 95.0423 16.5763C96.0138 16.5763 96.9173 16.7127 97.7525 16.9854C98.5877 17.2582 99.332 17.6587 99.9854 18.1871C100.639 18.7099 101.176 19.3519 101.596 20.1133C102.022 20.869 102.301 21.7326 102.431 22.7042ZM105.191 34.2695V21.1786H108.276V34.2695H105.191ZM106.742 19.3207C106.253 19.3207 105.833 19.1587 105.48 18.8349C105.128 18.5053 104.952 18.1104 104.952 17.6502C104.952 17.1843 105.128 16.7894 105.48 16.4656C105.833 16.136 106.253 15.9712 106.742 15.9712C107.236 15.9712 107.657 16.136 108.003 16.4656C108.355 16.7894 108.532 17.1843 108.532 17.6502C108.532 18.1104 108.355 18.5053 108.003 18.8349C107.657 19.1587 107.236 19.3207 106.742 19.3207ZM117.985 21.1786V23.565H110.46V21.1786H117.985ZM112.318 18.0423H115.403V30.332C115.403 30.7468 115.466 31.065 115.591 31.2866C115.721 31.5025 115.892 31.6502 116.102 31.7298C116.312 31.8093 116.545 31.8491 116.801 31.8491C116.994 31.8491 117.17 31.8349 117.329 31.8065C117.494 31.7781 117.619 31.7525 117.704 31.7298L118.224 34.1417C118.059 34.1985 117.824 34.261 117.517 34.3292C117.216 34.3974 116.846 34.4371 116.409 34.4485C115.636 34.4712 114.94 34.3548 114.321 34.0991C113.701 33.8377 113.21 33.4343 112.846 32.8888C112.488 32.3434 112.312 31.6616 112.318 30.8434V18.0423ZM122.483 39.1786C122.063 39.1786 121.674 39.1445 121.316 39.0763C120.963 39.0138 120.682 38.94 120.472 38.8548L121.188 36.4513C121.637 36.582 122.037 36.6445 122.39 36.6388C122.742 36.6332 123.051 36.5224 123.319 36.3065C123.591 36.0962 123.821 35.744 124.009 35.2496L124.273 34.5423L119.526 21.1786H122.799L125.816 31.065H125.952L128.978 21.1786H132.259L127.017 35.8548C126.773 36.5479 126.449 37.1417 126.046 37.636C125.642 38.136 125.148 38.5167 124.563 38.7781C123.983 39.0451 123.29 39.1786 122.483 39.1786Z" fill="white"/>
<path d="M137.279 34.2695H133.904L140.049 16.815H143.953L150.106 34.2695H146.731L142.069 20.3945H141.933L137.279 34.2695ZM137.39 27.4258H146.595V29.9656H137.39V27.4258ZM152.269 39.1786V21.1786H155.303V23.3434H155.482C155.641 23.0252 155.865 22.6871 156.155 22.3292C156.445 21.9656 156.837 21.6559 157.331 21.4002C157.826 21.1388 158.456 21.0082 159.223 21.0082C160.235 21.0082 161.147 21.2667 161.959 21.7837C162.777 22.2951 163.425 23.0536 163.902 24.0593C164.385 25.0593 164.627 26.2866 164.627 27.7411C164.627 29.1786 164.391 30.4002 163.919 31.4059C163.448 32.4116 162.806 33.1786 161.993 33.707C161.181 34.2354 160.26 34.4996 159.232 34.4996C158.482 34.4996 157.86 34.3746 157.365 34.1246C156.871 33.8746 156.473 33.5735 156.172 33.2212C155.877 32.8633 155.647 32.5252 155.482 32.207H155.354V39.1786H152.269ZM155.294 27.7241C155.294 28.5707 155.414 29.3121 155.652 29.9485C155.897 30.5849 156.246 31.082 156.701 31.44C157.161 31.7923 157.718 31.9684 158.371 31.9684C159.053 31.9684 159.624 31.7866 160.084 31.4229C160.544 31.0536 160.891 30.5508 161.124 29.9144C161.363 29.2724 161.482 28.5423 161.482 27.7241C161.482 26.9116 161.365 26.19 161.132 25.5593C160.9 24.9286 160.553 24.4343 160.093 24.0763C159.632 23.7184 159.059 23.5394 158.371 23.5394C157.712 23.5394 157.152 23.7127 156.692 24.0593C156.232 24.4059 155.882 24.8917 155.644 25.5167C155.411 26.1417 155.294 26.8775 155.294 27.7241ZM167.269 39.1786V21.1786H170.303V23.3434H170.482C170.641 23.0252 170.865 22.6871 171.155 22.3292C171.445 21.9656 171.837 21.6559 172.331 21.4002C172.826 21.1388 173.456 21.0082 174.223 21.0082C175.235 21.0082 176.147 21.2667 176.959 21.7837C177.777 22.2951 178.425 23.0536 178.902 24.0593C179.385 25.0593 179.627 26.2866 179.627 27.7411C179.627 29.1786 179.391 30.4002 178.919 31.4059C178.448 32.4116 177.806 33.1786 176.993 33.707C176.181 34.2354 175.26 34.4996 174.232 34.4996C173.482 34.4996 172.86 34.3746 172.365 34.1246C171.871 33.8746 171.473 33.5735 171.172 33.2212C170.877 32.8633 170.647 32.5252 170.482 32.207H170.354V39.1786H167.269ZM170.294 27.7241C170.294 28.5707 170.414 29.3121 170.652 29.9485C170.897 30.5849 171.246 31.082 171.701 31.44C172.161 31.7923 172.718 31.9684 173.371 31.9684C174.053 31.9684 174.624 31.7866 175.084 31.4229C175.544 31.0536 175.891 30.5508 176.124 29.9144C176.363 29.2724 176.482 28.5423 176.482 27.7241C176.482 26.9116 176.365 26.19 176.132 25.5593C175.9 24.9286 175.553 24.4343 175.093 24.0763C174.632 23.7184 174.059 23.5394 173.371 23.5394C172.712 23.5394 172.152 23.7127 171.692 24.0593C171.232 24.4059 170.882 24.8917 170.644 25.5167C170.411 26.1417 170.294 26.8775 170.294 27.7241Z" fill="white"/>
</svg>
