<svg width="181" height="50" viewBox="0 0 181 50" fill="none" xmlns="http://www.w3.org/2000/svg">
<path d="M11.0236 21.3639C11.4625 11.4893 22.0635 5.30694 31.0121 9.42916C38.794 13.0139 41.6389 23.7139 36.1223 30.4782C36.0672 30.5454 35.7524 30.937 35.7042 30.9287C34.0116 29.0051 31.8306 27.4782 29.3889 26.6722C29.5176 26.487 29.6843 26.337 29.825 26.1606C32.5334 22.7681 31.2468 17.5005 26.9986 16.1866C23.9926 15.2569 20.9561 16.4083 19.4917 19.2046C18.2098 21.6523 18.6899 24.5708 20.5848 26.5412C18.4611 27.519 16.426 28.6745 14.7834 30.3616C14.7084 30.4384 14.2996 30.9407 14.2482 30.9296C12.7903 29.2768 11.8292 27.2208 11.3588 25.0685C11.1885 24.2884 11.0588 23.4375 11.0241 22.6472C11.0065 22.2458 11.0061 21.7653 11.0241 21.3639H11.0236Z" fill="#014239"/>
<path d="M22.1232 28.6338C22.5292 28.5819 22.7454 28.7398 23.0477 28.9773C23.7593 29.5366 24.2653 30.3639 24.9769 30.9282L27.2501 28.6884C27.5542 28.5292 28.2936 28.775 28.6172 28.8884C30.1445 29.425 32.7116 30.8463 33.57 32.2458C33.7426 32.5273 33.9158 32.9009 33.6899 33.2069L24.9982 41.8671L16.0959 32.8986C16.0551 32.6477 16.5227 32.0847 16.6936 31.8935C17.7602 30.6995 18.9894 29.9444 20.4297 29.2731C20.8621 29.0713 21.6713 28.6926 22.1237 28.6347L22.1232 28.6338Z" fill="#014239"/>
<path d="M25.005 25.9741C27.1472 25.9741 28.8838 24.2365 28.8838 22.0931C28.8838 19.9496 27.1472 18.212 25.005 18.212C22.8629 18.212 21.1263 19.9496 21.1263 22.0931C21.1263 24.2365 22.8629 25.9741 25.005 25.9741Z" fill="#014239"/>
<path d="M51.913 16.0455H55.7823L60.9641 28.6932H61.1687L66.3505 16.0455H70.2198V33.5H67.1857V21.5085H67.0238L62.1999 33.4489H59.9329L55.109 21.483H54.9471V33.5H51.913V16.0455ZM75.4442 38.4091C75.0238 38.4091 74.6346 38.375 74.2766 38.3068C73.9244 38.2443 73.6431 38.1705 73.4329 38.0852L74.1488 35.6818C74.5977 35.8125 74.9982 35.875 75.3505 35.8693C75.7028 35.8636 76.0124 35.7528 76.2795 35.5369C76.5522 35.3267 76.7823 34.9744 76.9698 34.4801L77.234 33.7727L72.4869 20.4091H75.7596L78.7766 30.2955H78.913L81.9386 20.4091H85.2198L79.9783 35.0852C79.734 35.7784 79.4102 36.3722 79.0067 36.8665C78.6033 37.3665 78.109 37.7472 77.5238 38.0085C76.9442 38.2756 76.2511 38.4091 75.4442 38.4091ZM102.431 21.9347H99.244C99.1531 21.4119 98.9854 20.9489 98.7411 20.5455C98.4968 20.1364 98.1928 19.7898 97.8292 19.5057C97.4656 19.2216 97.0508 19.0085 96.5849 18.8665C96.1246 18.7188 95.6275 18.6449 95.0934 18.6449C94.1445 18.6449 93.3036 18.8835 92.5707 19.3608C91.8377 19.8324 91.2638 20.5256 90.8491 21.4403C90.4343 22.3494 90.2269 23.4602 90.2269 24.7727C90.2269 26.108 90.4343 27.233 90.8491 28.1477C91.2695 29.0568 91.8434 29.7443 92.5707 30.2102C93.3036 30.6705 94.1417 30.9006 95.0849 30.9006C95.6076 30.9006 96.0962 30.8324 96.5508 30.696C97.011 30.554 97.4229 30.3466 97.7866 30.0739C98.1559 29.8011 98.4656 29.4659 98.7156 29.0682C98.9712 28.6705 99.1474 28.2159 99.244 27.7045L102.431 27.7216C102.312 28.5511 102.054 29.3295 101.656 30.0568C101.264 30.7841 100.75 31.4261 100.113 31.983C99.4769 32.5341 98.7326 32.9659 97.8803 33.2784C97.0281 33.5852 96.082 33.7386 95.0423 33.7386C93.5082 33.7386 92.1388 33.3835 90.9343 32.6733C89.7298 31.9631 88.7809 30.9375 88.0877 29.5966C87.3945 28.2557 87.0479 26.6477 87.0479 24.7727C87.0479 22.892 87.3974 21.2841 88.0962 19.9489C88.7951 18.608 89.7468 17.5824 90.9513 16.8722C92.1559 16.1619 93.5195 15.8068 95.0423 15.8068C96.0138 15.8068 96.9173 15.9432 97.7525 16.2159C98.5877 16.4886 99.332 16.8892 99.9854 17.4176C100.639 17.9403 101.176 18.5824 101.596 19.3438C102.022 20.0994 102.301 20.9631 102.431 21.9347ZM105.191 33.5V20.4091H108.276V33.5H105.191ZM106.742 18.5511C106.253 18.5511 105.833 18.3892 105.48 18.0653C105.128 17.7358 104.952 17.3409 104.952 16.8807C104.952 16.4148 105.128 16.0199 105.48 15.696C105.833 15.3665 106.253 15.2017 106.742 15.2017C107.236 15.2017 107.657 15.3665 108.003 15.696C108.355 16.0199 108.532 16.4148 108.532 16.8807C108.532 17.3409 108.355 17.7358 108.003 18.0653C107.657 18.3892 107.236 18.5511 106.742 18.5511ZM117.985 20.4091V22.7955H110.46V20.4091H117.985ZM112.318 17.2727H115.403V29.5625C115.403 29.9773 115.466 30.2955 115.591 30.517C115.721 30.733 115.892 30.8807 116.102 30.9602C116.312 31.0398 116.545 31.0795 116.801 31.0795C116.994 31.0795 117.17 31.0653 117.329 31.0369C117.494 31.0085 117.619 30.983 117.704 30.9602L118.224 33.3722C118.059 33.429 117.824 33.4915 117.517 33.5597C117.216 33.6278 116.846 33.6676 116.409 33.679C115.636 33.7017 114.94 33.5852 114.321 33.3295C113.701 33.0682 113.21 32.6648 112.846 32.1193C112.488 31.5739 112.312 30.892 112.318 30.0739V17.2727ZM122.483 38.4091C122.063 38.4091 121.674 38.375 121.316 38.3068C120.963 38.2443 120.682 38.1705 120.472 38.0852L121.188 35.6818C121.637 35.8125 122.037 35.875 122.39 35.8693C122.742 35.8636 123.051 35.7528 123.319 35.5369C123.591 35.3267 123.821 34.9744 124.009 34.4801L124.273 33.7727L119.526 20.4091H122.799L125.816 30.2955H125.952L128.978 20.4091H132.259L127.017 35.0852C126.773 35.7784 126.449 36.3722 126.046 36.8665C125.642 37.3665 125.148 37.7472 124.563 38.0085C123.983 38.2756 123.29 38.4091 122.483 38.4091Z" fill="#014339"/>
<path d="M137.279 33.5H133.904L140.049 16.0455H143.953L150.106 33.5H146.731L142.069 19.625H141.933L137.279 33.5ZM137.39 26.6562H146.595V29.196H137.39V26.6562ZM152.269 38.4091V20.4091H155.303V22.5739H155.482C155.641 22.2557 155.865 21.9176 156.155 21.5597C156.445 21.196 156.837 20.8864 157.331 20.6307C157.826 20.3693 158.456 20.2386 159.223 20.2386C160.235 20.2386 161.147 20.4972 161.959 21.0142C162.777 21.5256 163.425 22.2841 163.902 23.2898C164.385 24.2898 164.627 25.517 164.627 26.9716C164.627 28.4091 164.391 29.6307 163.919 30.6364C163.448 31.642 162.806 32.4091 161.993 32.9375C161.181 33.4659 160.26 33.7301 159.232 33.7301C158.482 33.7301 157.86 33.6051 157.365 33.3551C156.871 33.1051 156.473 32.804 156.172 32.4517C155.877 32.0937 155.647 31.7557 155.482 31.4375H155.354V38.4091H152.269ZM155.294 26.9545C155.294 27.8011 155.414 28.5426 155.652 29.179C155.897 29.8153 156.246 30.3125 156.701 30.6705C157.161 31.0227 157.718 31.1989 158.371 31.1989C159.053 31.1989 159.624 31.017 160.084 30.6534C160.544 30.2841 160.891 29.7812 161.124 29.1449C161.363 28.5028 161.482 27.7727 161.482 26.9545C161.482 26.142 161.365 25.4205 161.132 24.7898C160.9 24.1591 160.553 23.6648 160.093 23.3068C159.632 22.9489 159.059 22.7699 158.371 22.7699C157.712 22.7699 157.152 22.9432 156.692 23.2898C156.232 23.6364 155.882 24.1222 155.644 24.7472C155.411 25.3722 155.294 26.108 155.294 26.9545ZM167.269 38.4091V20.4091H170.303V22.5739H170.482C170.641 22.2557 170.865 21.9176 171.155 21.5597C171.445 21.196 171.837 20.8864 172.331 20.6307C172.826 20.3693 173.456 20.2386 174.223 20.2386C175.235 20.2386 176.147 20.4972 176.959 21.0142C177.777 21.5256 178.425 22.2841 178.902 23.2898C179.385 24.2898 179.627 25.517 179.627 26.9716C179.627 28.4091 179.391 29.6307 178.919 30.6364C178.448 31.642 177.806 32.4091 176.993 32.9375C176.181 33.4659 175.26 33.7301 174.232 33.7301C173.482 33.7301 172.86 33.6051 172.365 33.3551C171.871 33.1051 171.473 32.804 171.172 32.4517C170.877 32.0937 170.647 31.7557 170.482 31.4375H170.354V38.4091H167.269ZM170.294 26.9545C170.294 27.8011 170.414 28.5426 170.652 29.179C170.897 29.8153 171.246 30.3125 171.701 30.6705C172.161 31.0227 172.718 31.1989 173.371 31.1989C174.053 31.1989 174.624 31.017 175.084 30.6534C175.544 30.2841 175.891 29.7812 176.124 29.1449C176.363 28.5028 176.482 27.7727 176.482 26.9545C176.482 26.142 176.365 25.4205 176.132 24.7898C175.9 24.1591 175.553 23.6648 175.093 23.3068C174.632 22.9489 174.059 22.7699 173.371 22.7699C172.712 22.7699 172.152 22.9432 171.692 23.2898C171.232 23.6364 170.882 24.1222 170.644 24.7472C170.411 25.3722 170.294 26.108 170.294 26.9545Z" fill="#014339"/>
</svg>
