<svg width="136" height="39" viewBox="0 0 136 39" fill="none" xmlns="http://www.w3.org/2000/svg">
<rect x="1.5" y="1.5" width="29" height="29" rx="14.5" stroke="white" stroke-width="3"/>
<g clip-path="url(#clip0_1091_2551)">
<path d="M16 24C13.8631 24 11.8542 23.1678 10.3431 21.6569C8.83216 20.1458 8 18.1369 8 16C8 13.8631 8.83216 11.8542 10.3431 10.3431C11.8542 8.83216 13.8631 8 16 8C18.1369 8 20.1458 8.83216 21.6569 10.3431C23.1678 11.8542 24 13.8631 24 16C24 18.1369 23.1678 20.1458 21.6569 21.6569C20.1458 23.1678 18.1369 24 16 24ZM16 10.8125C13.1396 10.8125 10.8125 13.1396 10.8125 16C10.8125 18.8604 13.1396 21.1875 16 21.1875C18.8604 21.1875 21.1875 18.8604 21.1875 16C21.1875 13.1396 18.8604 10.8125 16 10.8125Z" fill="#FFCC00"/>
</g>
<path d="M44.3643 20.52C40.2563 20.52 37.1363 17.712 37.1363 13.968C37.1363 9.99 40.3343 7 44.5983 7C48.7063 7 51.8263 9.834 51.8263 13.578C51.8263 17.53 48.6283 20.52 44.3643 20.52ZM44.5983 17.452C46.4703 17.452 47.6143 16.1 47.6143 13.942C47.6143 11.55 46.3663 10.068 44.3643 10.068C42.4923 10.068 41.3483 11.42 41.3483 13.604C41.3483 15.97 42.5963 17.452 44.5983 17.452ZM62.3303 2.476L66.4383 1.644V20H62.4863V18.362C61.4983 19.584 59.9643 20.416 58.1443 20.416C55.0243 20.416 52.6323 17.972 52.6323 14.28C52.6323 10.016 55.8563 7.052 60.0423 7.052C60.7703 7.052 61.5503 7.156 62.3303 7.312V2.476ZM59.9383 17.114C60.9523 17.114 61.7583 16.698 62.3303 15.97V10.796C61.6283 10.38 60.7963 10.172 60.0163 10.172C58.3523 10.172 56.8963 11.16 56.8963 13.526C56.8963 15.736 58.1183 17.114 59.9383 17.114ZM75.3804 20.52C71.2724 20.52 68.1524 17.712 68.1524 13.968C68.1524 9.99 71.3504 7 75.6144 7C79.7224 7 82.8424 9.834 82.8424 13.578C82.8424 17.53 79.6444 20.52 75.3804 20.52ZM75.6144 17.452C77.4864 17.452 78.6304 16.1 78.6304 13.942C78.6304 11.55 77.3824 10.068 75.3804 10.068C73.5084 10.068 72.3644 11.42 72.3644 13.604C72.3644 15.97 73.6124 17.452 75.6144 17.452ZM99.7684 7.52V10.978L96.7264 10.77C97.1944 11.446 97.4544 12.2 97.4544 13.11C97.4544 16.074 94.6724 18.414 90.7464 18.414C90.5384 18.414 90.3304 18.414 90.1224 18.388L88.0944 21.612C89.7064 20.52 91.8644 19.662 94.0484 19.662C96.4144 19.662 98.9104 20.676 99.2224 24.94L94.9324 25.46C94.6724 23.51 93.6324 23.12 92.3064 23.12C90.5644 23.12 88.2244 23.796 86.3004 24.966L83.8044 23.38L86.3784 17.27C84.7664 16.282 83.7784 14.722 83.7784 12.876C83.7784 9.73 86.6644 7.104 90.6424 7.104C91.6044 7.104 92.4624 7.26 93.2424 7.52H99.7684ZM90.7204 15.528C92.2284 15.528 93.5024 14.54 93.5024 12.876C93.5024 11.134 92.1504 10.042 90.5644 10.042C89.0304 10.042 87.7304 11.056 87.7304 12.72C87.7304 14.436 89.1344 15.528 90.7204 15.528ZM116.154 7.52H119.976L115.764 20H111.838L109.498 12.98L107.496 20H103.57L99.3317 7.52H103.492L105.728 15.762L107.938 7.52H111.708L114.074 15.762L116.154 7.52ZM129.821 7.91L133.929 7.078V20H129.977V18.362C128.833 19.662 127.117 20.364 125.453 20.364C122.827 20.364 120.773 18.57 120.773 14.982V7.91L124.881 7.078V13.708C124.881 15.866 125.609 16.932 127.065 16.932C128.105 16.932 129.067 16.438 129.821 15.528V7.91Z" fill="white"/>
<path d="M42.3258 28.3687C44.203 28.3687 45.2597 29.2455 45.2597 30.7294C45.2597 32.2357 44.1581 33.1574 42.3033 33.1574H40.4035V35.7654H39.2457V28.3687H42.3258ZM42.2471 32.2019C43.4611 32.2019 44.0457 31.6624 44.0457 30.7518C44.0457 29.8413 43.4611 29.3242 42.2471 29.3242H40.4035V32.2019H42.2471ZM49.3077 35.934C47.6553 35.934 46.3625 34.8099 46.3625 33.1574C46.3625 31.505 47.6777 30.2572 49.3527 30.2572C50.9939 30.2572 52.2978 31.3813 52.2978 33.0338C52.2978 34.6862 50.9826 35.934 49.3077 35.934ZM49.3751 35.0572C50.4093 35.0572 51.1512 34.2478 51.1512 33.1125C51.1512 31.9209 50.3981 31.134 49.2852 31.134C48.2398 31.134 47.5091 31.9321 47.5091 33.0787C47.5091 34.2703 48.2623 35.0572 49.3751 35.0572ZM60.698 30.4258H61.7547L59.9112 35.7654H58.8433L57.5168 31.8984L56.2691 35.7654H55.2012L53.3464 30.4258H54.4817L55.7857 34.5738L57.0784 30.4258H58.1126L59.439 34.5738L60.698 30.4258ZM65.9036 35.0234C66.6231 35.0234 67.2638 34.7537 67.8258 34.2928L68.2642 34.8998C67.6572 35.4731 66.8141 35.9227 65.7238 35.9227C64.0488 35.9227 62.8011 34.8998 62.8011 33.2136C62.8011 31.5162 64.0826 30.2572 65.7687 30.2572C67.2413 30.2572 68.2755 31.2127 68.2755 32.6291C68.2755 32.9326 68.2193 33.1574 68.1518 33.3373H63.9027C64.0039 34.3827 64.7458 35.0234 65.9036 35.0234ZM65.7687 31.0778C64.9032 31.0778 64.1613 31.6286 63.9477 32.5392H67.2638C67.2188 31.6511 66.6455 31.0778 65.7687 31.0778ZM73.1665 30.3022C73.3576 30.3022 73.5824 30.3247 73.7847 30.3696V31.4825C73.5712 31.4038 73.3239 31.3589 73.0878 31.3589C72.2335 31.3589 71.6714 31.8197 71.1881 32.7527V35.7654H70.0752V30.5158L71.1543 30.2797V31.7186C71.6602 30.7856 72.3909 30.3022 73.1665 30.3022ZM77.7423 35.0234C78.4617 35.0234 79.1025 34.7537 79.6645 34.2928L80.1029 34.8998C79.4959 35.4731 78.6528 35.9227 77.5624 35.9227C75.8875 35.9227 74.6398 34.8998 74.6398 33.2136C74.6398 31.5162 75.9213 30.2572 77.6074 30.2572C79.08 30.2572 80.1142 31.2127 80.1142 32.6291C80.1142 32.9326 80.058 33.1574 79.9905 33.3373H75.7414C75.8426 34.3827 76.5845 35.0234 77.7423 35.0234ZM77.6074 31.0778C76.7418 31.0778 75.9999 31.6286 75.7864 32.5392H79.1025C79.0575 31.6511 78.4842 31.0778 77.6074 31.0778ZM85.8932 28.2001L87.0061 27.9753V35.7654H85.9269V35.0347C85.4773 35.518 84.7579 35.9002 83.9148 35.9002C82.5659 35.9002 81.4755 34.911 81.4755 33.2811C81.4755 31.5275 82.7682 30.2797 84.4656 30.2797C84.9265 30.2797 85.4211 30.3809 85.8932 30.5495V28.2001ZM84.3082 34.9672C84.949 34.9672 85.5223 34.6637 85.8932 34.1804V31.5949C85.4436 31.3139 84.9265 31.1678 84.4544 31.1678C83.4314 31.1678 82.6333 31.8984 82.6333 33.1237C82.6333 34.2928 83.3527 34.9672 84.3082 34.9672ZM97.5483 31.9771C98.4251 32.2469 98.9198 32.8876 98.9198 33.7082C98.9198 35.0909 97.7956 35.7654 96.3568 35.7654H92.7259V28.3687H96.0308C97.672 28.3687 98.6724 29.0544 98.6724 30.291C98.6724 31.134 98.2453 31.6961 97.5483 31.9771ZM95.9409 29.3242H93.8725V31.5724H96.0758C96.9301 31.5724 97.4809 31.1902 97.4809 30.4596C97.4809 29.7514 96.9863 29.3242 95.9409 29.3242ZM96.1545 34.8099C97.2111 34.8099 97.7282 34.3715 97.7282 33.6408C97.7282 32.9326 97.2448 32.483 96.2556 32.483H93.8725V34.8099H96.1545ZM104.753 30.4258H105.855L102.471 38.0136H101.369L102.46 35.6867L100.077 30.4258H101.268L103.011 34.4614L104.753 30.4258Z" fill="white" fill-opacity="0.65"/>
<path d="M121.38 26C114.46 26 108.85 28.8051 108.85 32.2653C108.85 35.7256 114.46 38.5307 121.38 38.5307C128.301 38.5307 133.911 35.7256 133.911 32.2653C133.911 28.8051 128.301 26 121.38 26ZM121.38 37.5416C115.006 37.5416 109.839 35.1793 109.839 32.2653C109.839 29.3514 115.006 26.9891 121.38 26.9891C127.755 26.9891 132.922 29.3514 132.922 32.2653C132.922 35.1793 127.755 37.5416 121.38 37.5416ZM119.8 31.1662V30.1768H123.335V31.1662H122.062V34.3539H121.073V31.1662H119.8ZM127.602 30.1768V34.3539H126.613L124.819 31.8673V34.3539H123.83V30.1768H124.819L126.613 32.6634V30.1768H127.602ZM115.129 34.3539V30.1768H116.118L117.217 31.8673L118.316 30.1768H119.305V34.3539H118.316V31.9912L117.566 33.1445H116.868L116.118 31.9912V34.3539H115.129Z" fill="#A6A6A6"/>
<defs>
<clipPath id="clip0_1091_2551">
<rect width="16" height="16" fill="white" transform="translate(8 8)"/>
</clipPath>
</defs>
</svg>
